<svg width="232" height="51" viewBox="0 0 232 51" fill="none" xmlns="http://www.w3.org/2000/svg">
<g filter="url(#filter0_ddf_6584_557735)">
<path d="M195.3 39.7C195.232 39.1481 195.21 38.7977 195.078 38.5715C194.862 38.2903 194.487 38.2635 193.8 38.2C194.476 38.1182 194.842 38.1004 195.058 37.8428C195.22 37.6148 195.248 37.2621 195.3 36.7C195.388 37.429 195.402 37.7972 195.721 38.0066C195.949 38.1164 196.288 38.1404 196.8 38.2C196.165 38.2778 195.797 38.2957 195.577 38.4896C195.392 38.7106 195.372 39.0776 195.3 39.7Z" fill="url(#paint0_linear_6584_557735)"/>
</g>
<g filter="url(#filter1_ddf_6584_557735)">
<path d="M224.8 44.7C224.755 44.3321 224.74 44.0985 224.652 43.9477C224.508 43.7602 224.258 43.7424 223.8 43.7C224.251 43.6454 224.494 43.6336 224.639 43.4619C224.747 43.3099 224.765 43.0747 224.8 42.7C224.858 43.186 224.868 43.4314 225.081 43.5711C225.232 43.6443 225.458 43.6603 225.8 43.7C225.376 43.7519 225.131 43.7638 224.985 43.8931C224.861 44.0404 224.848 44.2851 224.8 44.7Z" fill="url(#paint1_linear_6584_557735)"/>
</g>
<g filter="url(#filter2_ddf_6584_557735)">
<path d="M185.8 8.70001C185.755 8.3321 185.74 8.09848 185.652 7.94767C185.508 7.76022 185.258 7.74237 184.8 7.70001C185.251 7.64544 185.494 7.63362 185.639 7.4619C185.747 7.30989 185.765 7.07474 185.8 6.70001C185.858 7.18601 185.868 7.43144 186.081 7.5711C186.232 7.64428 186.458 7.66026 186.8 7.70001C186.376 7.75186 186.131 7.76379 185.985 7.89306C185.861 8.04041 185.848 8.28508 185.8 8.70001Z" fill="url(#paint2_linear_6584_557735)"/>
</g>
<g filter="url(#filter3_ddf_6584_557735)">
<path d="M4.79962 39.7C4.75455 39.3321 4.73964 39.0985 4.65157 38.9477C4.50761 38.7602 4.25806 38.7424 3.79962 38.7C4.25063 38.6454 4.49448 38.6336 4.63887 38.4619C4.74675 38.3099 4.765 38.0747 4.79962 37.7C4.85843 38.186 4.86764 38.4314 5.08073 38.5711C5.23225 38.6443 5.45834 38.6603 5.79962 38.7C5.37644 38.7519 5.13092 38.7638 4.98474 38.8931C4.86114 39.0404 4.84796 39.2851 4.79962 39.7Z" fill="url(#paint3_linear_6584_557735)"/>
</g>
<g filter="url(#filter4_ddf_6584_557735)">
<path d="M58.7996 45.7C58.7545 45.3321 58.7396 45.0985 58.6516 44.9477C58.5076 44.7602 58.2581 44.7424 57.7996 44.7C58.2506 44.6454 58.4945 44.6336 58.6389 44.4619C58.7467 44.3099 58.765 44.0747 58.7996 43.7C58.8584 44.186 58.8676 44.4314 59.0807 44.5711C59.2322 44.6443 59.4583 44.6603 59.7996 44.7C59.3764 44.7519 59.1309 44.7638 58.9847 44.8931C58.8611 45.0404 58.848 45.2851 58.7996 45.7Z" fill="url(#paint4_linear_6584_557735)"/>
</g>
<g filter="url(#filter5_ddf_6584_557735)">
<path d="M5.20001 7.70001C5.1324 7.14814 5.11005 6.79771 4.97794 6.5715C4.76199 6.29033 4.38767 6.26355 3.70001 6.20001C4.37652 6.11816 4.7423 6.10042 4.95889 5.84284C5.1207 5.61482 5.14808 5.2621 5.20001 4.70001C5.28822 5.42902 5.30204 5.79715 5.62168 6.00664C5.84895 6.11642 6.18809 6.14038 6.70001 6.20001C6.06525 6.27778 5.69695 6.29567 5.47769 6.48958C5.29229 6.71061 5.27251 7.07762 5.20001 7.70001Z" fill="url(#paint5_linear_6584_557735)"/>
</g>
<g filter="url(#filter6_ddf_6584_557735)">
<path d="M5.20001 7.70001C5.1324 7.14814 5.11005 6.79771 4.97794 6.5715C4.76199 6.29033 4.38767 6.26355 3.70001 6.20001C4.37652 6.11816 4.7423 6.10042 4.95889 5.84284C5.1207 5.61482 5.14808 5.2621 5.20001 4.70001C5.28822 5.42902 5.30204 5.79715 5.62168 6.00664C5.84895 6.11642 6.18809 6.14038 6.70001 6.20001C6.06525 6.27778 5.69695 6.29567 5.47769 6.48958C5.29229 6.71061 5.27251 7.07762 5.20001 7.70001Z" fill="url(#paint6_linear_6584_557735)"/>
</g>
<g filter="url(#filter7_ddf_6584_557735)">
<path d="M28.7 30.7C28.6549 30.1481 28.64 29.7977 28.552 29.5715C28.408 29.2903 28.1585 29.2635 27.7 29.2C28.151 29.1182 28.3949 29.1004 28.5393 28.8428C28.6471 28.6148 28.6654 28.2621 28.7 27.7C28.7588 28.429 28.768 28.7972 28.9811 29.0066C29.1326 29.1164 29.3587 29.1404 29.7 29.2C29.2768 29.2778 29.0313 29.2957 28.8851 29.4896C28.7615 29.7106 28.7483 30.0776 28.7 30.7Z" fill="url(#paint7_linear_6584_557735)"/>
</g>
<g filter="url(#filter8_ddf_6584_557735)">
<path d="M210.2 21.7C210.177 21.1481 210.17 20.7977 210.126 20.5715C210.054 20.2903 209.929 20.2635 209.7 20.2C209.926 20.1182 210.047 20.1004 210.12 19.8428C210.174 19.6148 210.183 19.2621 210.2 18.7C210.229 19.429 210.234 19.7972 210.341 20.0066C210.416 20.1164 210.529 20.1404 210.7 20.2C210.488 20.2778 210.366 20.2957 210.293 20.4896C210.231 20.7106 210.224 21.0776 210.2 21.7Z" fill="url(#paint8_linear_6584_557735)"/>
</g>
<g filter="url(#filter9_ddf_6584_557735)">
<path d="M45.7 9.70001C45.6324 9.3321 45.61 9.09848 45.4779 8.94767C45.262 8.76022 44.8877 8.74237 44.2 8.70001C44.8765 8.64544 45.2423 8.63362 45.4589 8.4619C45.6207 8.30989 45.6481 8.07474 45.7 7.70001C45.7882 8.18601 45.802 8.43144 46.1217 8.5711C46.349 8.64428 46.6881 8.66026 47.2 8.70001C46.5652 8.75186 46.197 8.76379 45.9777 8.89306C45.7923 9.04041 45.7725 9.28508 45.7 9.70001Z" fill="url(#paint9_linear_6584_557735)"/>
</g>
<defs>
<filter id="filter0_ddf_6584_557735" x="190.1" y="32" width="12.4" height="12.4" filterUnits="userSpaceOnUse" color-interpolation-filters="sRGB">
<feFlood flood-opacity="0" result="BackgroundImageFix"/>
<feColorMatrix in="SourceAlpha" type="matrix" values="0 0 0 0 0 0 0 0 0 0 0 0 0 0 0 0 0 0 127 0" result="hardAlpha"/>
<feOffset/>
<feGaussianBlur stdDeviation="1"/>
<feComposite in2="hardAlpha" operator="out"/>
<feColorMatrix type="matrix" values="0 0 0 0 1 0 0 0 0 0.737255 0 0 0 0 0.439216 0 0 0 1 0"/>
<feBlend mode="normal" in2="BackgroundImageFix" result="effect1_dropShadow_6584_557735"/>
<feColorMatrix in="SourceAlpha" type="matrix" values="0 0 0 0 0 0 0 0 0 0 0 0 0 0 0 0 0 0 127 0" result="hardAlpha"/>
<feOffset dx="1"/>
<feGaussianBlur stdDeviation="2.35"/>
<feComposite in2="hardAlpha" operator="out"/>
<feColorMatrix type="matrix" values="0 0 0 0 1 0 0 0 0 0.737588 0 0 0 0 0.437688 0 0 0 0.7 0"/>
<feBlend mode="normal" in2="effect1_dropShadow_6584_557735" result="effect2_dropShadow_6584_557735"/>
<feBlend mode="normal" in="SourceGraphic" in2="effect2_dropShadow_6584_557735" result="shape"/>
<feGaussianBlur stdDeviation="0.5" result="effect3_foregroundBlur_6584_557735"/>
</filter>
<filter id="filter1_ddf_6584_557735" x="220.1" y="38" width="11.4" height="11.4" filterUnits="userSpaceOnUse" color-interpolation-filters="sRGB">
<feFlood flood-opacity="0" result="BackgroundImageFix"/>
<feColorMatrix in="SourceAlpha" type="matrix" values="0 0 0 0 0 0 0 0 0 0 0 0 0 0 0 0 0 0 127 0" result="hardAlpha"/>
<feOffset/>
<feGaussianBlur stdDeviation="1"/>
<feComposite in2="hardAlpha" operator="out"/>
<feColorMatrix type="matrix" values="0 0 0 0 1 0 0 0 0 0.737255 0 0 0 0 0.439216 0 0 0 1 0"/>
<feBlend mode="normal" in2="BackgroundImageFix" result="effect1_dropShadow_6584_557735"/>
<feColorMatrix in="SourceAlpha" type="matrix" values="0 0 0 0 0 0 0 0 0 0 0 0 0 0 0 0 0 0 127 0" result="hardAlpha"/>
<feOffset dx="1"/>
<feGaussianBlur stdDeviation="2.35"/>
<feComposite in2="hardAlpha" operator="out"/>
<feColorMatrix type="matrix" values="0 0 0 0 1 0 0 0 0 0.737588 0 0 0 0 0.437688 0 0 0 0.7 0"/>
<feBlend mode="normal" in2="effect1_dropShadow_6584_557735" result="effect2_dropShadow_6584_557735"/>
<feBlend mode="normal" in="SourceGraphic" in2="effect2_dropShadow_6584_557735" result="shape"/>
<feGaussianBlur stdDeviation="0.5" result="effect3_foregroundBlur_6584_557735"/>
</filter>
<filter id="filter2_ddf_6584_557735" x="181.1" y="2.00001" width="11.4" height="11.4" filterUnits="userSpaceOnUse" color-interpolation-filters="sRGB">
<feFlood flood-opacity="0" result="BackgroundImageFix"/>
<feColorMatrix in="SourceAlpha" type="matrix" values="0 0 0 0 0 0 0 0 0 0 0 0 0 0 0 0 0 0 127 0" result="hardAlpha"/>
<feOffset/>
<feGaussianBlur stdDeviation="1"/>
<feComposite in2="hardAlpha" operator="out"/>
<feColorMatrix type="matrix" values="0 0 0 0 1 0 0 0 0 0.737255 0 0 0 0 0.439216 0 0 0 1 0"/>
<feBlend mode="normal" in2="BackgroundImageFix" result="effect1_dropShadow_6584_557735"/>
<feColorMatrix in="SourceAlpha" type="matrix" values="0 0 0 0 0 0 0 0 0 0 0 0 0 0 0 0 0 0 127 0" result="hardAlpha"/>
<feOffset dx="1"/>
<feGaussianBlur stdDeviation="2.35"/>
<feComposite in2="hardAlpha" operator="out"/>
<feColorMatrix type="matrix" values="0 0 0 0 1 0 0 0 0 0.737588 0 0 0 0 0.437688 0 0 0 0.7 0"/>
<feBlend mode="normal" in2="effect1_dropShadow_6584_557735" result="effect2_dropShadow_6584_557735"/>
<feBlend mode="normal" in="SourceGraphic" in2="effect2_dropShadow_6584_557735" result="shape"/>
<feGaussianBlur stdDeviation="0.5" result="effect3_foregroundBlur_6584_557735"/>
</filter>
<filter id="filter3_ddf_6584_557735" x="0.0996218" y="33" width="11.4" height="11.4" filterUnits="userSpaceOnUse" color-interpolation-filters="sRGB">
<feFlood flood-opacity="0" result="BackgroundImageFix"/>
<feColorMatrix in="SourceAlpha" type="matrix" values="0 0 0 0 0 0 0 0 0 0 0 0 0 0 0 0 0 0 127 0" result="hardAlpha"/>
<feOffset/>
<feGaussianBlur stdDeviation="1"/>
<feComposite in2="hardAlpha" operator="out"/>
<feColorMatrix type="matrix" values="0 0 0 0 1 0 0 0 0 0.737255 0 0 0 0 0.439216 0 0 0 1 0"/>
<feBlend mode="normal" in2="BackgroundImageFix" result="effect1_dropShadow_6584_557735"/>
<feColorMatrix in="SourceAlpha" type="matrix" values="0 0 0 0 0 0 0 0 0 0 0 0 0 0 0 0 0 0 127 0" result="hardAlpha"/>
<feOffset dx="1"/>
<feGaussianBlur stdDeviation="2.35"/>
<feComposite in2="hardAlpha" operator="out"/>
<feColorMatrix type="matrix" values="0 0 0 0 1 0 0 0 0 0.737588 0 0 0 0 0.437688 0 0 0 0.7 0"/>
<feBlend mode="normal" in2="effect1_dropShadow_6584_557735" result="effect2_dropShadow_6584_557735"/>
<feBlend mode="normal" in="SourceGraphic" in2="effect2_dropShadow_6584_557735" result="shape"/>
<feGaussianBlur stdDeviation="0.5" result="effect3_foregroundBlur_6584_557735"/>
</filter>
<filter id="filter4_ddf_6584_557735" x="54.0996" y="39" width="11.4" height="11.4" filterUnits="userSpaceOnUse" color-interpolation-filters="sRGB">
<feFlood flood-opacity="0" result="BackgroundImageFix"/>
<feColorMatrix in="SourceAlpha" type="matrix" values="0 0 0 0 0 0 0 0 0 0 0 0 0 0 0 0 0 0 127 0" result="hardAlpha"/>
<feOffset/>
<feGaussianBlur stdDeviation="1"/>
<feComposite in2="hardAlpha" operator="out"/>
<feColorMatrix type="matrix" values="0 0 0 0 1 0 0 0 0 0.737255 0 0 0 0 0.439216 0 0 0 1 0"/>
<feBlend mode="normal" in2="BackgroundImageFix" result="effect1_dropShadow_6584_557735"/>
<feColorMatrix in="SourceAlpha" type="matrix" values="0 0 0 0 0 0 0 0 0 0 0 0 0 0 0 0 0 0 127 0" result="hardAlpha"/>
<feOffset dx="1"/>
<feGaussianBlur stdDeviation="2.35"/>
<feComposite in2="hardAlpha" operator="out"/>
<feColorMatrix type="matrix" values="0 0 0 0 1 0 0 0 0 0.737588 0 0 0 0 0.437688 0 0 0 0.7 0"/>
<feBlend mode="normal" in2="effect1_dropShadow_6584_557735" result="effect2_dropShadow_6584_557735"/>
<feBlend mode="normal" in="SourceGraphic" in2="effect2_dropShadow_6584_557735" result="shape"/>
<feGaussianBlur stdDeviation="0.5" result="effect3_foregroundBlur_6584_557735"/>
</filter>
<filter id="filter5_ddf_6584_557735" x="1.23978e-05" y="1.23978e-05" width="12.4" height="12.4" filterUnits="userSpaceOnUse" color-interpolation-filters="sRGB">
<feFlood flood-opacity="0" result="BackgroundImageFix"/>
<feColorMatrix in="SourceAlpha" type="matrix" values="0 0 0 0 0 0 0 0 0 0 0 0 0 0 0 0 0 0 127 0" result="hardAlpha"/>
<feOffset/>
<feGaussianBlur stdDeviation="1"/>
<feComposite in2="hardAlpha" operator="out"/>
<feColorMatrix type="matrix" values="0 0 0 0 1 0 0 0 0 0.737255 0 0 0 0 0.439216 0 0 0 1 0"/>
<feBlend mode="normal" in2="BackgroundImageFix" result="effect1_dropShadow_6584_557735"/>
<feColorMatrix in="SourceAlpha" type="matrix" values="0 0 0 0 0 0 0 0 0 0 0 0 0 0 0 0 0 0 127 0" result="hardAlpha"/>
<feOffset dx="1"/>
<feGaussianBlur stdDeviation="2.35"/>
<feComposite in2="hardAlpha" operator="out"/>
<feColorMatrix type="matrix" values="0 0 0 0 1 0 0 0 0 0.737588 0 0 0 0 0.437688 0 0 0 0.7 0"/>
<feBlend mode="normal" in2="effect1_dropShadow_6584_557735" result="effect2_dropShadow_6584_557735"/>
<feBlend mode="normal" in="SourceGraphic" in2="effect2_dropShadow_6584_557735" result="shape"/>
<feGaussianBlur stdDeviation="0.5" result="effect3_foregroundBlur_6584_557735"/>
</filter>
<filter id="filter6_ddf_6584_557735" x="1.23978e-05" y="1.23978e-05" width="12.4" height="12.4" filterUnits="userSpaceOnUse" color-interpolation-filters="sRGB">
<feFlood flood-opacity="0" result="BackgroundImageFix"/>
<feColorMatrix in="SourceAlpha" type="matrix" values="0 0 0 0 0 0 0 0 0 0 0 0 0 0 0 0 0 0 127 0" result="hardAlpha"/>
<feOffset/>
<feGaussianBlur stdDeviation="1"/>
<feComposite in2="hardAlpha" operator="out"/>
<feColorMatrix type="matrix" values="0 0 0 0 1 0 0 0 0 0.737255 0 0 0 0 0.439216 0 0 0 1 0"/>
<feBlend mode="normal" in2="BackgroundImageFix" result="effect1_dropShadow_6584_557735"/>
<feColorMatrix in="SourceAlpha" type="matrix" values="0 0 0 0 0 0 0 0 0 0 0 0 0 0 0 0 0 0 127 0" result="hardAlpha"/>
<feOffset dx="1"/>
<feGaussianBlur stdDeviation="2.35"/>
<feComposite in2="hardAlpha" operator="out"/>
<feColorMatrix type="matrix" values="0 0 0 0 1 0 0 0 0 0.737588 0 0 0 0 0.437688 0 0 0 0.7 0"/>
<feBlend mode="normal" in2="effect1_dropShadow_6584_557735" result="effect2_dropShadow_6584_557735"/>
<feBlend mode="normal" in="SourceGraphic" in2="effect2_dropShadow_6584_557735" result="shape"/>
<feGaussianBlur stdDeviation="0.5" result="effect3_foregroundBlur_6584_557735"/>
</filter>
<filter id="filter7_ddf_6584_557735" x="24" y="23" width="11.4" height="12.4" filterUnits="userSpaceOnUse" color-interpolation-filters="sRGB">
<feFlood flood-opacity="0" result="BackgroundImageFix"/>
<feColorMatrix in="SourceAlpha" type="matrix" values="0 0 0 0 0 0 0 0 0 0 0 0 0 0 0 0 0 0 127 0" result="hardAlpha"/>
<feOffset/>
<feGaussianBlur stdDeviation="1"/>
<feComposite in2="hardAlpha" operator="out"/>
<feColorMatrix type="matrix" values="0 0 0 0 1 0 0 0 0 0.737255 0 0 0 0 0.439216 0 0 0 1 0"/>
<feBlend mode="normal" in2="BackgroundImageFix" result="effect1_dropShadow_6584_557735"/>
<feColorMatrix in="SourceAlpha" type="matrix" values="0 0 0 0 0 0 0 0 0 0 0 0 0 0 0 0 0 0 127 0" result="hardAlpha"/>
<feOffset dx="1"/>
<feGaussianBlur stdDeviation="2.35"/>
<feComposite in2="hardAlpha" operator="out"/>
<feColorMatrix type="matrix" values="0 0 0 0 1 0 0 0 0 0.737588 0 0 0 0 0.437688 0 0 0 0.7 0"/>
<feBlend mode="normal" in2="effect1_dropShadow_6584_557735" result="effect2_dropShadow_6584_557735"/>
<feBlend mode="normal" in="SourceGraphic" in2="effect2_dropShadow_6584_557735" result="shape"/>
<feGaussianBlur stdDeviation="0.5" result="effect3_foregroundBlur_6584_557735"/>
</filter>
<filter id="filter8_ddf_6584_557735" x="206" y="14" width="10.4" height="12.4" filterUnits="userSpaceOnUse" color-interpolation-filters="sRGB">
<feFlood flood-opacity="0" result="BackgroundImageFix"/>
<feColorMatrix in="SourceAlpha" type="matrix" values="0 0 0 0 0 0 0 0 0 0 0 0 0 0 0 0 0 0 127 0" result="hardAlpha"/>
<feOffset/>
<feGaussianBlur stdDeviation="1"/>
<feComposite in2="hardAlpha" operator="out"/>
<feColorMatrix type="matrix" values="0 0 0 0 1 0 0 0 0 0.737255 0 0 0 0 0.439216 0 0 0 1 0"/>
<feBlend mode="normal" in2="BackgroundImageFix" result="effect1_dropShadow_6584_557735"/>
<feColorMatrix in="SourceAlpha" type="matrix" values="0 0 0 0 0 0 0 0 0 0 0 0 0 0 0 0 0 0 127 0" result="hardAlpha"/>
<feOffset dx="1"/>
<feGaussianBlur stdDeviation="2.35"/>
<feComposite in2="hardAlpha" operator="out"/>
<feColorMatrix type="matrix" values="0 0 0 0 1 0 0 0 0 0.737588 0 0 0 0 0.437688 0 0 0 0.7 0"/>
<feBlend mode="normal" in2="effect1_dropShadow_6584_557735" result="effect2_dropShadow_6584_557735"/>
<feBlend mode="normal" in="SourceGraphic" in2="effect2_dropShadow_6584_557735" result="shape"/>
<feGaussianBlur stdDeviation="0.5" result="effect3_foregroundBlur_6584_557735"/>
</filter>
<filter id="filter9_ddf_6584_557735" x="40.5" y="3.00001" width="12.4" height="11.4" filterUnits="userSpaceOnUse" color-interpolation-filters="sRGB">
<feFlood flood-opacity="0" result="BackgroundImageFix"/>
<feColorMatrix in="SourceAlpha" type="matrix" values="0 0 0 0 0 0 0 0 0 0 0 0 0 0 0 0 0 0 127 0" result="hardAlpha"/>
<feOffset/>
<feGaussianBlur stdDeviation="1"/>
<feComposite in2="hardAlpha" operator="out"/>
<feColorMatrix type="matrix" values="0 0 0 0 1 0 0 0 0 0.737255 0 0 0 0 0.439216 0 0 0 1 0"/>
<feBlend mode="normal" in2="BackgroundImageFix" result="effect1_dropShadow_6584_557735"/>
<feColorMatrix in="SourceAlpha" type="matrix" values="0 0 0 0 0 0 0 0 0 0 0 0 0 0 0 0 0 0 127 0" result="hardAlpha"/>
<feOffset dx="1"/>
<feGaussianBlur stdDeviation="2.35"/>
<feComposite in2="hardAlpha" operator="out"/>
<feColorMatrix type="matrix" values="0 0 0 0 1 0 0 0 0 0.737588 0 0 0 0 0.437688 0 0 0 0.7 0"/>
<feBlend mode="normal" in2="effect1_dropShadow_6584_557735" result="effect2_dropShadow_6584_557735"/>
<feBlend mode="normal" in="SourceGraphic" in2="effect2_dropShadow_6584_557735" result="shape"/>
<feGaussianBlur stdDeviation="0.5" result="effect3_foregroundBlur_6584_557735"/>
</filter>
<linearGradient id="paint0_linear_6584_557735" x1="195.3" y1="39.8304" x2="195.3" y2="36.7" gradientUnits="userSpaceOnUse">
<stop stop-color="white"/>
<stop offset="0.643228" stop-color="white"/>
<stop offset="1" stop-color="white"/>
</linearGradient>
<linearGradient id="paint1_linear_6584_557735" x1="224.8" y1="44.787" x2="224.8" y2="42.7" gradientUnits="userSpaceOnUse">
<stop stop-color="white"/>
<stop offset="0.643228" stop-color="white"/>
<stop offset="1" stop-color="white"/>
</linearGradient>
<linearGradient id="paint2_linear_6584_557735" x1="185.8" y1="8.78697" x2="185.8" y2="6.70001" gradientUnits="userSpaceOnUse">
<stop stop-color="white"/>
<stop offset="0.643228" stop-color="white"/>
<stop offset="1" stop-color="white"/>
</linearGradient>
<linearGradient id="paint3_linear_6584_557735" x1="4.80006" y1="39.787" x2="4.80006" y2="37.7" gradientUnits="userSpaceOnUse">
<stop stop-color="white"/>
<stop offset="0.643228" stop-color="white"/>
<stop offset="1" stop-color="white"/>
</linearGradient>
<linearGradient id="paint4_linear_6584_557735" x1="58.8001" y1="45.787" x2="58.8001" y2="43.7" gradientUnits="userSpaceOnUse">
<stop stop-color="white"/>
<stop offset="0.643228" stop-color="white"/>
<stop offset="1" stop-color="white"/>
</linearGradient>
<linearGradient id="paint5_linear_6584_557735" x1="5.20067" y1="7.83045" x2="5.20067" y2="4.70001" gradientUnits="userSpaceOnUse">
<stop stop-color="white"/>
<stop offset="0.643228" stop-color="white"/>
<stop offset="1" stop-color="white"/>
</linearGradient>
<linearGradient id="paint6_linear_6584_557735" x1="5.20067" y1="7.83045" x2="5.20067" y2="4.70001" gradientUnits="userSpaceOnUse">
<stop stop-color="white"/>
<stop offset="0.643228" stop-color="white"/>
<stop offset="1" stop-color="white"/>
</linearGradient>
<linearGradient id="paint7_linear_6584_557735" x1="28.7005" y1="30.8304" x2="28.7005" y2="27.7" gradientUnits="userSpaceOnUse">
<stop stop-color="white"/>
<stop offset="0.643228" stop-color="white"/>
<stop offset="1" stop-color="white"/>
</linearGradient>
<linearGradient id="paint8_linear_6584_557735" x1="210.2" y1="21.8304" x2="210.2" y2="18.7" gradientUnits="userSpaceOnUse">
<stop stop-color="white"/>
<stop offset="0.643228" stop-color="white"/>
<stop offset="1" stop-color="white"/>
</linearGradient>
<linearGradient id="paint9_linear_6584_557735" x1="45.7007" y1="9.78697" x2="45.7007" y2="7.70001" gradientUnits="userSpaceOnUse">
<stop stop-color="white"/>
<stop offset="0.643228" stop-color="white"/>
<stop offset="1" stop-color="white"/>
</linearGradient>
</defs>
</svg>

