<svg width="226" height="272" viewBox="0 0 226 272" fill="none" xmlns="http://www.w3.org/2000/svg">
    <path opacity="0.4" d="M111.785 34C112.456 34 113 34.4477 113 35C113 35.5523 112.456 36 111.785 36C111.114 36 110.57 35.5523 110.57 35C110.57 34.4477 111.114 34 111.785 34Z" fill="white"/>
    <path opacity="0.4" d="M47.3872 56C48.0582 56 48.6022 56.4477 48.6022 57C48.6022 57.5523 48.0582 58 47.3872 58C46.7161 58 46.1721 57.5523 46.1721 57C46.1721 56.4477 46.7161 56 47.3872 56Z" fill="white"/>
    <path opacity="0.1" d="M6.07515 71C6.7462 71 7.29022 71.4477 7.29022 72C7.29022 72.5523 6.7462 73 6.07515 73C5.40409 73 4.86011 72.5523 4.86011 72C4.86011 71.4477 5.40409 71 6.07515 71Z" fill="white"/>
    <path d="M224.785 59C225.456 59 226 59.4477 226 60C226 60.5523 225.456 61 224.785 61C224.114 61 223.57 60.5523 223.57 60C223.57 59.4477 224.114 59 224.785 59Z" fill="white"/>
    <path d="M224.785 231C225.456 231 226 231.448 226 232C226 232.552 225.456 233 224.785 233C224.114 233 223.57 232.552 223.57 232C223.57 231.448 224.114 231 224.785 231Z" fill="white"/>
    <path opacity="0.1" d="M92.3439 270C93.015 270 93.559 270.448 93.559 271C93.559 271.552 93.015 272 92.3439 272C91.6729 272 91.1289 271.552 91.1289 271C91.1289 270.448 91.6729 270 92.3439 270Z" fill="white"/>
    <path opacity="0.1" d="M174.968 57C175.639 57 176.183 57.4477 176.183 58C176.183 58.5523 175.639 59 174.968 59C174.297 59 173.753 58.5523 173.753 58C173.753 57.4477 174.297 57 174.968 57Z" fill="white"/>
    <path opacity="0.1" d="M93.5588 54C94.2298 54 94.7739 54.4477 94.7739 55C94.7739 55.5523 94.2298 56 93.5588 56C92.8877 56 92.3438 55.5523 92.3438 55C92.3438 54.4477 92.8877 54 93.5588 54Z" fill="white"/>
    <path opacity="0.1" d="M77.7639 31C78.4349 31 78.9789 31.4477 78.9789 32C78.9789 32.5523 78.4349 33 77.7639 33C77.0928 33 76.5488 32.5523 76.5488 32C76.5488 31.4477 77.0928 31 77.7639 31Z" fill="white"/>
    <path opacity="0.1" d="M182.258 224C182.929 224 183.473 224.448 183.473 225C183.473 225.552 182.929 226 182.258 226C181.587 226 181.043 225.552 181.043 225C181.043 224.448 181.587 224 182.258 224Z" fill="white"/>
    <path opacity="0.2" d="M223.57 179C224.241 179 224.785 179.448 224.785 180C224.785 180.552 224.241 181 223.57 181C222.898 181 222.354 180.552 222.354 180C222.354 179.448 222.898 179 223.57 179Z" fill="white"/>
    <path opacity="0.6" d="M125.151 236C125.822 236 126.366 236.448 126.366 237C126.366 237.552 125.822 238 125.151 238C124.48 238 123.936 237.552 123.936 237C123.936 236.448 124.48 236 125.151 236Z" fill="white"/>
    <path opacity="0.2" d="M174.968 109C175.639 109 176.183 109.448 176.183 110C176.183 110.552 175.639 111 174.968 111C174.297 111 173.753 110.552 173.753 110C173.753 109.448 174.297 109 174.968 109Z" fill="white"/>
    <path opacity="0.2" d="M1.21504 215C1.8861 215 2.43011 215.448 2.43011 216C2.43011 216.552 1.8861 217 1.21504 217C0.543982 217 5.33883e-09 216.552 1.19248e-08 216C1.85107e-08 215.448 0.543982 215 1.21504 215Z" fill="white"/>
    <path opacity="0.1" d="M60.7531 247C61.4242 247 61.9682 247.448 61.9682 248C61.9682 248.552 61.4242 249 60.7531 249C60.0821 249 59.5381 248.552 59.5381 248C59.5381 247.448 60.0821 247 60.7531 247Z" fill="white"/>
    <path opacity="0.1" d="M154.312 1.33698e-07C154.983 1.41701e-07 155.527 0.447727 155.527 1.00001C155.527 1.55229 154.983 2 154.312 2C153.641 2 153.097 1.55229 153.097 1.00001C153.097 0.447726 153.641 1.25696e-07 154.312 1.33698e-07Z" fill="white"/>
</svg>
