<svg width="214" height="85" viewBox="0 0 214 85" fill="none" xmlns="http://www.w3.org/2000/svg">
    <path opacity="0.4" d="M27 46C27 45.4477 27.4477 45 28 45C28.5523 45 29 45.4477 29 46C29 46.5523 28.5523 47 28 47C27.4477 47 27 46.5523 27 46Z" fill="white"/>
    <path opacity="0.4" d="M1 67C1 66.4477 1.44773 66 2.00001 66C2.55229 66 3 66.4477 3 67C3 67.5523 2.55229 68 2.00001 68C1.44773 68 1 67.5523 1 67Z" fill="white"/>
    <path opacity="0.1" d="M49 84C49 83.4477 49.4477 83 50 83C50.5523 83 51 83.4477 51 84C51 84.5523 50.5523 85 50 85C49.4477 85 49 84.5523 49 84Z" fill="white"/>
    <path d="M21 9.00001C21 8.44773 21.4477 8 22 8C22.5523 8 23 8.44773 23 9.00001C23 9.5523 22.5523 10 22 10C21.4477 10 21 9.5523 21 9.00001Z" fill="white"/>
    <path d="M194 14C194 13.4477 194.448 13 195 13C195.552 13 196 13.4477 196 14C196 14.5523 195.552 15 195 15C194.448 15 194 14.5523 194 14Z" fill="white"/>
    <path opacity="0.1" d="M212 59C212 58.4477 212.448 58 213 58C213.552 58 214 58.4477 214 59C214 59.5523 213.552 60 213 60C212.448 60 212 59.5523 212 59Z" fill="white"/>
    <path opacity="0.1" d="M45 6.00001C45 5.44773 45.4477 5 46 5C46.5523 5 47 5.44773 47 6.00001C47 6.5523 46.5523 7 46 7C45.4477 7 45 6.5523 45 6.00001Z" fill="white"/>
    <path opacity="0.1" d="M47 63C47 62.4477 47.4477 62 48 62C48.5523 62 49 62.4477 49 63C49 63.5523 48.5523 64 48 64C47.4477 64 47 63.5523 47 63Z" fill="white"/>
    <path opacity="0.1" d="M25 68C25 67.4477 25.4477 67 26 67C26.5523 67 27 67.4477 27 68C27 68.5523 26.5523 69 26 69C25.4477 69 25 68.5523 25 68Z" fill="white"/>
    <path opacity="0.1" d="M176 1.00001C176 0.447727 176.448 0 177 0C177.552 0 178 0.447727 178 1.00001C178 1.5523 177.552 2 177 2C176.448 2 176 1.5523 176 1.00001Z" fill="white"/>
    <path opacity="0.6" d="M185 38C185 37.4477 185.448 37 186 37C186.552 37 187 37.4477 187 38C187 38.5523 186.552 39 186 39C185.448 39 185 38.5523 185 38Z" fill="white"/>
    <path opacity="0.2" d="M86 6.00001C86 5.44773 86.4477 5 87 5C87.5523 5 88 5.44773 88 6.00001C88 6.5523 87.5523 7 87 7C86.4477 7 86 6.5523 86 6.00001Z" fill="white"/>
    <path opacity="0.2" d="M167 65C167 64.4477 167.448 64 168 64C168.552 64 169 64.4477 169 65C169 65.5523 168.552 66 168 66C167.448 66 167 65.5523 167 65Z" fill="white"/>
    <path opacity="0.1" d="M194 79C194 78.4477 194.448 78 195 78C195.552 78 196 78.4477 196 79C196 79.5523 195.552 80 195 80C194.448 80 194 79.5523 194 79Z" fill="white"/>
    <path opacity="0.1" d="M1.19209e-07 19C1.19209e-07 18.4477 0.447726 18 1.00001 18C1.55229 18 2 18.4477 2 19C2 19.5523 1.55229 20 1.00001 20C0.447726 20 1.19209e-07 19.5523 1.19209e-07 19Z" fill="white"/>
</svg>
