<svg width="28" height="29" viewBox="0 0 28 29" fill="none" xmlns="http://www.w3.org/2000/svg">
    <g filter="url(#filter0_d_2732_22595)">
        <path d="M24.4981 6.27765C24.4981 6.27765 22.5202 6.38344 19.3067 5.71205C16.0931 5.04006 13.9996 2.74219 13.9996 2.74219C13.9996 2.74219 11.906 5.04006 8.69244 5.71205C5.47889 6.38344 3.50104 6.27765 3.50104 6.27765C3.50104 6.27765 3.35994 13.5602 6.36154 17.7676C9.36314 21.9745 13.9996 23.7422 13.9996 23.7422C13.9996 23.7422 18.636 21.9745 21.6376 17.7676C24.6392 13.5607 24.4981 6.27765 24.4981 6.27765Z" fill="url(#paint0_linear_2732_22595)"/>
        <path d="M14.1846 2.57422H14.1855C14.1863 2.57503 14.1868 2.57725 14.1885 2.5791C14.1919 2.58281 14.1978 2.58805 14.2051 2.5957C14.22 2.61142 14.2431 2.63534 14.2734 2.66602C14.3343 2.72752 14.4259 2.8177 14.5459 2.92773C14.7861 3.14786 15.1401 3.44927 15.5928 3.77148C16.4998 4.41708 17.7949 5.14096 19.3574 5.46777C20.9513 5.80078 22.2376 5.94026 23.123 5.99707C23.5658 6.02546 23.9089 6.03264 24.1396 6.0332C24.2549 6.03348 24.3424 6.03277 24.4004 6.03125C24.4292 6.0305 24.4507 6.02986 24.4648 6.0293C24.4718 6.02902 24.4772 6.02847 24.4805 6.02832H24.4844L24.7432 6.01465L24.748 6.27246L24.498 6.27734C24.748 6.2725 24.748 6.27333 24.748 6.27344V6.2959C24.7482 6.31037 24.7489 6.33183 24.749 6.35938C24.7493 6.41494 24.7491 6.49674 24.748 6.60156C24.746 6.81147 24.7396 7.11508 24.7227 7.49219C24.6887 8.24683 24.6118 9.29734 24.4404 10.4805C24.0988 12.8388 23.3769 15.7603 21.8408 17.9131C20.3152 20.0511 18.3776 21.5654 16.8262 22.5439C16.0497 23.0337 15.3676 23.3911 14.8789 23.626C14.6348 23.7433 14.4385 23.8298 14.3027 23.8877C14.2348 23.9167 14.1817 23.9385 14.1455 23.9531C14.1277 23.9603 14.114 23.966 14.1045 23.9697C14.0997 23.9716 14.0954 23.9726 14.0928 23.9736C14.0915 23.9741 14.0906 23.9753 14.0898 23.9756H14.0889L14 24.0098L13.9102 23.9756H13.9092C13.9084 23.9753 13.9075 23.9741 13.9062 23.9736C13.9037 23.9726 13.8993 23.9716 13.8945 23.9697C13.885 23.966 13.8713 23.9603 13.8535 23.9531C13.8173 23.9385 13.7642 23.9167 13.6963 23.8877C13.5605 23.8298 13.3643 23.7433 13.1201 23.626C12.6314 23.3911 11.9493 23.0337 11.1729 22.5439C9.62144 21.5654 7.6838 20.0512 6.1582 17.9131C4.62216 15.76 3.90021 12.8387 3.55859 10.4805C3.38721 9.2973 3.31032 8.24683 3.27637 7.49219C3.25941 7.11508 3.25301 6.81147 3.25098 6.60156C3.24996 6.49675 3.24969 6.41494 3.25 6.35938C3.25015 6.33183 3.25079 6.31037 3.25098 6.2959V6.27344V6.27246L3.25586 6.01465L3.51465 6.02832H3.51855C3.52184 6.02847 3.52716 6.02902 3.53418 6.0293C3.54829 6.02986 3.56983 6.03049 3.59863 6.03125C3.65661 6.03277 3.74415 6.03348 3.85938 6.0332C4.09013 6.03264 4.43327 6.02546 4.87598 5.99707C5.7614 5.94027 7.04762 5.8008 8.6416 5.46777C10.2042 5.14097 11.4992 4.41709 12.4062 3.77148C12.8589 3.44928 13.2129 3.14787 13.4531 2.92773C13.5732 2.8177 13.6647 2.72752 13.7256 2.66602C13.756 2.63532 13.779 2.61142 13.7939 2.5957C13.8012 2.58806 13.8071 2.58282 13.8105 2.5791L13.8145 2.57422L14 2.37109L14.1846 2.57422Z" stroke="white" stroke-width="0.5"/>
    </g>
    <path d="M22.036 8.81351C21.7402 6.81705 18.6938 7.10192 17.1912 6.85488C15.6892 6.60842 13.8353 4.84424 13.8353 4.84424C13.8353 4.84424 11.9821 6.60842 10.4801 6.85488C8.97811 7.10133 5.93104 6.81646 5.63525 8.81351C5.33946 10.81 6.49015 15.6728 9.04659 18.4364C11.603 21.2 13.8353 21.5328 13.8353 21.5328C13.8353 21.5328 16.0677 21.2 18.6241 18.4364C21.1805 15.6728 22.3312 10.81 22.0354 8.81351H22.036Z" fill="url(#paint1_radial_2732_22595)"/>
    <path d="M13.8343 7.05908L14.9195 10.406C14.972 10.5685 14.3137 10.8138 13.2014 11.0437H19.3062L16.4658 13.1123C16.1434 13.3475 16.0082 13.7636 16.1316 14.1436L17.2167 17.4905L14.3763 15.422C14.237 15.3203 14.8321 14.4527 15.1905 14.094C14.5511 14.5425 13.4771 15.2884 13.2941 15.422L10.4537 17.4905L11.5388 14.1436C11.6622 13.7636 11.527 13.3469 11.2047 13.1123L8.36426 11.0437H11.8754C12.2739 11.0437 12.6275 10.7866 12.7509 10.406L13.8361 7.05908H13.8343Z" fill="url(#paint2_linear_2732_22595)"/>
    <defs>
        <filter id="filter0_d_2732_22595" x="0" y="0" width="27.999" height="28.2773" filterUnits="userSpaceOnUse" color-interpolation-filters="sRGB">
            <feFlood flood-opacity="0" result="BackgroundImageFix"/>
            <feColorMatrix in="SourceAlpha" type="matrix" values="0 0 0 0 0 0 0 0 0 0 0 0 0 0 0 0 0 0 127 0" result="hardAlpha"/>
            <feOffset dy="1"/>
            <feGaussianBlur stdDeviation="1.5"/>
            <feComposite in2="hardAlpha" operator="out"/>
            <feColorMatrix type="matrix" values="0 0 0 0 0.658824 0 0 0 0 0.87451 0 0 0 0 1 0 0 0 0.6 0"/>
            <feBlend mode="normal" in2="BackgroundImageFix" result="effect1_dropShadow_2732_22595"/>
            <feBlend mode="normal" in="SourceGraphic" in2="effect1_dropShadow_2732_22595" result="shape"/>
        </filter>
        <linearGradient id="paint0_linear_2732_22595" x1="13.9996" y1="2.74219" x2="13.9996" y2="23.7422" gradientUnits="userSpaceOnUse">
            <stop stop-color="#CFCFCF"/>
            <stop offset="1" stop-color="#4D4E4E"/>
        </linearGradient>
        <radialGradient id="paint1_radial_2732_22595" cx="0" cy="0" r="1" gradientUnits="userSpaceOnUse" gradientTransform="translate(13.8353 13.1885) rotate(90) scale(8.34427 8.2455)">
            <stop stop-color="#2F59A5"/>
            <stop offset="1" stop-color="#00062D"/>
        </radialGradient>
        <linearGradient id="paint2_linear_2732_22595" x1="10.8203" y1="12.2577" x2="14.6046" y2="18.4598" gradientUnits="userSpaceOnUse">
            <stop stop-color="#A8DFFF"/>
            <stop offset="1" stop-color="#005CFF"/>
        </linearGradient>
    </defs>
</svg>
