<svg width="24" height="24" viewBox="0 0 24 24" fill="none" xmlns="http://www.w3.org/2000/svg">
    <mask id="mask0_13198_46" style="mask-type:alpha" maskUnits="userSpaceOnUse" x="0" y="0" width="24" height="24">
        <path d="M19.8165 16.055C19.722 16.0022 19.5887 15.9243 19.4235 15.8192C19.0933 15.6092 18.635 15.2903 18.1058 14.8459C17.0472 13.9571 15.7027 12.5646 14.5325 10.5378C13.3623 8.51091 12.8287 6.65034 12.5882 5.2892C12.468 4.60867 12.4209 4.05234 12.4041 3.66131C12.3958 3.46574 12.395 3.31132 12.3965 3.20316C12.3972 3.14907 12.4029 3.03983 12.4041 3.00947C10.7452 2.93332 9.04569 3.3151 7.50075 4.20707C5.95671 5.09853 4.77681 6.37848 4.01323 7.85216L4.18318 7.9451C4.27758 7.9979 4.41092 8.0758 4.5761 8.18084C4.90637 8.39085 5.36463 8.7098 5.89386 9.15418C6.9524 10.043 8.2969 11.4354 9.46711 13.4623C10.6373 15.4892 11.1709 17.3497 11.4114 18.7109C11.5317 19.3914 11.5787 19.9477 11.5955 20.3388C11.6039 20.5343 11.6046 20.6888 11.6032 20.7969V20.9909C13.2598 21.0656 14.9566 20.6836 16.4992 19.7929C18.0417 18.9024 19.2208 17.6242 19.9844 16.1524L19.8165 16.055Z" fill="white"/>
        <path d="M10.2526 20.8273C10.2537 20.7432 10.2542 20.5654 10.2469 20.3965C10.2325 20.0586 10.1911 19.5618 10.0822 18.9457C9.86454 17.7136 9.37759 16.0068 8.29817 14.1372C7.21876 12.2676 5.98411 10.9925 5.02589 10.1879C4.54675 9.78555 4.13723 9.50132 3.85183 9.31983C3.70917 9.22912 3.55508 9.14066 3.48163 9.09957C2.67581 11.4693 2.85724 14.1613 4.20707 16.4992C5.5569 18.8372 7.79745 20.3403 10.2526 20.8273Z" fill="white"/>
        <path d="M13.747 3.1726C13.7459 3.25676 13.7455 3.43467 13.7527 3.60357C13.7672 3.94148 13.8085 4.43826 13.9174 5.05436C14.1351 6.28649 14.622 7.9933 15.7015 9.86289C16.7809 11.7325 18.0155 13.0076 18.9737 13.8122C19.4529 14.2145 19.8624 14.4987 20.1478 14.6802C20.2905 14.7709 20.4448 14.8596 20.5183 14.9007C21.3242 12.5309 21.1428 9.83881 19.7929 7.50075C18.443 5.16267 16.2023 3.65955 13.747 3.1726Z" fill="white"/>
    </mask>
    <g mask="url(#mask0_13198_46)">
        <rect width="24" height="24" fill="url(#paint0_linear_13198_46)"/>
    </g>
    <defs>
        <linearGradient id="paint0_linear_13198_46" x1="12" y1="0" x2="12" y2="24" gradientUnits="userSpaceOnUse">
            <stop stop-color="#BFB0B3"/>
            <stop offset="1" stop-color="#9A8487"/>
        </linearGradient>
    </defs>
</svg>
