<svg width="24" height="24" viewBox="0 0 24 24" fill="none" xmlns="http://www.w3.org/2000/svg">
    <mask id="mask0_13198_12" style="mask-type:alpha" maskUnits="userSpaceOnUse" x="0" y="0" width="24" height="24">
        <path d="M12 21C16.9706 21 21 16.9706 21 12C21 7.02944 16.9706 3 12 3C7.02944 3 3 7.02944 3 12C3 13.4397 3.33805 14.8005 3.93912 16.0072C4.09884 16.3279 4.15201 16.6945 4.05941 17.0406L3.52336 19.044C3.29066 19.9137 4.08631 20.7093 4.95601 20.4766L6.95945 19.9406C7.30554 19.848 7.67209 19.9012 7.99278 20.0609C9.19953 20.6619 10.5603 21 12 21Z" fill="white"/>
    </mask>
    <g mask="url(#mask0_13198_12)">
        <rect width="24" height="24" fill="url(#paint0_linear_13198_12)"/>
    </g>
    <defs>
        <linearGradient id="paint0_linear_13198_12" x1="12" y1="0" x2="12" y2="24" gradientUnits="userSpaceOnUse">
            <stop stop-color="#BFB0B3"/>
            <stop offset="1" stop-color="#9A8487"/>
        </linearGradient>
    </defs>
</svg>
