<svg width="42" height="40" viewBox="0 0 42 40" fill="none" xmlns="http://www.w3.org/2000/svg">
    <path d="M20.9485 0L25.1025 12.8002C25.3044 13.4222 22.7842 14.3591 18.5257 15.2384C19.7984 15.2384 27.5807 15.2384 28.4543 15.2384H41.897L31.0216 23.1494C29.7864 24.0479 29.2695 25.6405 29.7413 27.0944L33.8953 39.8946L23.02 31.9836C22.4855 31.5949 24.7661 28.2771 26.1366 26.9049C23.6892 28.6202 19.5777 31.4739 18.877 31.9836L8.00161 39.8946L12.1556 27.0944C12.6274 25.6405 12.1106 24.0479 10.8754 23.1494L0 15.2384H13.4427C14.9695 15.2384 16.3226 14.2541 16.7945 12.8002L20.9485 0Z" fill="url(#paint0_linear_24391_11753)"/>
    <defs>
        <linearGradient id="paint0_linear_24391_11753" x1="-3.91708" y1="-12.2411" x2="50.6305" y2="-7.00829" gradientUnits="userSpaceOnUse">
            <stop stop-color="#FFC796"/>
            <stop offset="1" stop-color="#F5B476"/>
        </linearGradient>
    </defs>
</svg>
