<svg width="16" height="16" viewBox="0 0 16 16" fill="none" xmlns="http://www.w3.org/2000/svg">
    <g clip-path="url(#clip0_24391_17354)">
        <rect width="16" height="16" fill="#2E42A4"/>
        <path d="M16.373 0.24707L17.7051 1.99902L18.0078 2.39746L17.6104 2.7002L10.6406 7.99902L17.6104 13.2998L18.0078 13.6025L17.7051 14.001L16.373 15.7529L16.0703 16.1504L15.6719 15.8477L7.99805 10.0098L0.324219 15.8477L-0.0742188 16.1504L-0.376953 15.7529L-1.70898 14.001L-2.01172 13.6025L-1.61426 13.2998L5.35352 7.99902L-1.61426 2.7002L-2.01172 2.39746L-1.70996 1.99902L-0.376953 0.24707L-0.0742188 -0.150391L0.324219 0.151367L7.99805 5.98828L15.6719 0.151367L16.0703 -0.150391L16.373 0.24707Z" fill="#F50100" stroke="white"/>
        <path d="M10.1514 -0.5V5.84863H16.5V10.1504H10.1514V16.5H5.84961V10.1504H-0.5V5.84863H5.84961V-0.5H10.1514Z" fill="#F50100" stroke="white"/>
    </g>
    <rect x="0.25" y="0.25" width="15.5" height="15.5" rx="4.75" stroke="white" stroke-opacity="0.3" stroke-width="0.5"/>
    <defs>
        <clipPath id="clip0_24391_17354">
            <rect width="16" height="16" rx="5" fill="white"/>
        </clipPath>
    </defs>
</svg>
