<svg width="29" height="20" viewBox="0 0 29 20" fill="none" xmlns="http://www.w3.org/2000/svg">
    <rect x="8" y="4" width="14" height="11" fill="white"/>
    <path fill-rule="evenodd" clip-rule="evenodd" d="M2.98237 19.4091C2.4653 19.2544 1.99351 18.9791 1.60681 18.6065C1.22011 18.2339 0.929849 17.7749 0.760522 17.2683C-0.207059 14.6498 -0.493749 3.71591 1.36974 1.55743C1.98994 0.855265 2.86559 0.422958 3.80661 0.354346C8.80577 -0.176427 24.2512 -0.105657 26.0251 0.531271C26.524 0.691097 26.9799 0.960341 27.3585 1.31883C27.737 1.67732 28.0285 2.11575 28.2111 2.60128C29.2683 5.30823 29.3041 15.1452 28.0678 17.746C27.7398 18.423 27.1907 18.9714 26.5089 19.3029C24.6454 20.2229 5.45508 20.2052 2.98237 19.4091ZM10.9201 14.2783L19.8792 9.67826L10.9201 5.04284V14.2783Z" fill="#F60000"/>
</svg>
