<svg width="24" height="24" viewBox="0 0 24 24" fill="none" xmlns="http://www.w3.org/2000/svg">
    <circle cx="12" cy="12" r="12" fill="white"/>
    <path fill-rule="evenodd" clip-rule="evenodd" d="M24 12C24 18.6274 18.6274 24 12 24C5.37259 24 0 18.6274 0 12C0 5.37259 5.37259 0 12 0C18.6274 0 24 5.37259 24 12ZM13.1499 8.31784C11.0884 9.20831 5.1442 11.7372 5.1442 11.7372C3.73547 12.3071 4.56005 12.8413 4.56005 12.8413C4.56005 12.8413 5.76263 13.2688 6.79345 13.5893C7.82422 13.9099 8.37399 13.5537 8.37399 13.5537C8.37399 13.5537 10.7792 11.9153 13.2186 10.17C14.9366 8.95898 14.5243 9.95627 14.112 10.3837C13.2186 11.3098 11.7412 12.7701 10.5042 13.9455C9.95452 14.4442 10.2294 14.8716 10.4699 15.0853C11.1694 15.6988 12.8169 16.8147 13.5649 17.3214C13.7722 17.4617 13.9104 17.5553 13.9402 17.5785C14.112 17.721 15.0741 18.3621 15.6582 18.2197C16.2423 18.0772 16.311 17.258 16.311 17.258C16.311 17.258 16.7577 14.3373 17.17 11.6659C17.2464 11.1414 17.3227 10.6279 17.394 10.1491C17.579 8.9046 17.7293 7.89436 17.7541 7.53424C17.8572 6.32325 16.6202 6.82187 16.6202 6.82187C16.6202 6.82187 13.9402 7.96168 13.1499 8.31784Z" fill="#34AADF"/>
</svg>
