<svg viewBox="0 0 223 41" fill="none" xmlns="http://www.w3.org/2000/svg">
    <path d="M190.1 32l1.5 1.5-1.5 1.5-1.5-1.5 1.5-1.5z" fill="#FFBC70" opacity="0.8"/>
    <path d="M220.1 38l1 1-1 1-1-1 1-1z" fill="#FFBC70" opacity="0.6"/>
    <path d="M181.1 2l1 1-1 1-1-1 1-1z" fill="#FFBC70" opacity="0.7"/>
    <path d="M0.1 33l1 1-1 1-1-1 1-1z" fill="#FFBC70" opacity="0.5"/>
    <path d="M54.1 39l1 1-1 1-1-1 1-1z" fill="#FFBC70" opacity="0.6"/>
    <path d="M0 0l1.5 1.5L0 3l-1.5-1.5L0 0z" fill="#FFBC70" opacity="0.8"/>
    <path d="M24 23l1 1.5-1 1.5-1-1.5 1-1.5z" fill="#FFBC70" opacity="0.7"/>
    <path d="M206 14l0.5 1.5-0.5 1.5-0.5-1.5 0.5-1.5z" fill="#FFBC70" opacity="0.5"/>
    <path d="M40.5 3l1.5 1-1.5 1-1.5-1 1.5-1z" fill="#FFBC70" opacity="0.6"/>
</svg>

