<svg width="24" height="24" viewBox="0 0 24 24" fill="none" xmlns="http://www.w3.org/2000/svg">
<mask id="mask0_24229_24890" style="mask-type:alpha" maskUnits="userSpaceOnUse" x="0" y="0" width="24" height="24">
<path d="M9.26694 5.67194C10.4829 3.49058 11.0909 2.3999 11.9999 2.3999C12.9089 2.3999 13.5169 3.49058 14.7329 5.67194L15.0475 6.23629C15.393 6.85616 15.5658 7.1661 15.8352 7.3706C16.1045 7.5751 16.44 7.65101 17.1111 7.80283L17.7219 7.94105C20.0832 8.47532 21.2639 8.74245 21.5448 9.64572C21.8257 10.549 21.0208 11.4902 19.411 13.3726L18.9945 13.8596C18.5371 14.3946 18.3084 14.662 18.2055 14.9929C18.1026 15.3238 18.1372 15.6807 18.2063 16.3944L18.2693 17.0441C18.5127 19.5557 18.6343 20.8115 17.899 21.3697C17.1636 21.928 16.0581 21.419 13.8473 20.401L13.2753 20.1377C12.647 19.8484 12.3329 19.7038 11.9999 19.7038C11.6669 19.7038 11.3528 19.8484 10.7245 20.1377L10.1525 20.401C7.94167 21.419 6.83623 21.928 6.10084 21.3697C5.36546 20.8115 5.48715 19.5557 5.73052 17.0441L5.79349 16.3944C5.86265 15.6806 5.89723 15.3238 5.79433 14.9929C5.69143 14.662 5.46271 14.3946 5.00526 13.8596L4.5888 13.3726C2.97902 11.4902 2.17413 10.549 2.45503 9.64572C2.73592 8.74245 3.91657 8.47532 6.27786 7.94105L6.88875 7.80283C7.55976 7.65101 7.89526 7.5751 8.16465 7.3706C8.43403 7.1661 8.60681 6.85616 8.95235 6.23629L9.26694 5.67194Z" fill="white"/>
</mask>
<g mask="url(#mask0_24229_24890)">
<rect width="24" height="24" fill="white"/>
</g>
</svg>
