<svg width="24" height="24" viewBox="0 0 24 24" fill="none" xmlns="http://www.w3.org/2000/svg">
<mask id="mask0_24229_24937" style="mask-type:alpha" maskUnits="userSpaceOnUse" x="0" y="0" width="24" height="24">
<path d="M3.97119 16.9258C6.92789 15.1673 11.1277 14.1775 13.9302 15.8867C14.1183 16.0015 14.2875 16.1405 14.4321 16.3066C15.0557 17.0231 15.0103 18.1045 14.2915 18.7461C14.1398 18.8815 13.9778 18.9838 13.8149 19.0195C13.9488 19.0037 14.0773 18.9858 14.1997 18.9658C15.2182 18.7997 16.0733 18.2432 16.856 17.6387L18.8755 16.0781C19.5875 15.5281 20.6447 15.5282 21.3569 16.0781C21.998 16.5732 22.1939 17.3884 21.7886 18.0527C21.3159 18.8275 20.6496 19.8183 20.0103 20.4238C19.3699 21.0303 18.4164 21.5719 17.6382 21.9561C16.7761 22.3815 15.8237 22.6268 14.855 22.7871C12.89 23.1124 10.8419 23.0631 8.89697 22.6533C7.79749 22.4217 6.6556 22.3008 5.52588 22.3008H5.23584C4.18211 22.3008 3.65499 22.3006 3.32764 21.9658C3.00049 21.6311 3.00049 21.0927 3.00049 20.0156V18.7441C3.00049 18.1518 3.00011 17.8554 3.14893 17.5908C3.29775 17.3264 3.52231 17.1927 3.97119 16.9258ZM3.20068 6.55566C3.40877 6.55593 3.54825 6.80801 3.82666 7.3125L3.89893 7.44336C3.97811 7.58685 4.01786 7.65872 4.07959 7.70605C4.14127 7.75327 4.21809 7.77058 4.37158 7.80566L4.51123 7.83789C5.05223 7.96153 5.32373 8.02345 5.38818 8.23242C5.45255 8.44151 5.26783 8.65996 4.89893 9.0957L4.80322 9.20801C4.69839 9.33183 4.64614 9.39411 4.62256 9.4707C4.59904 9.54725 4.60672 9.62982 4.62256 9.79492L4.63721 9.94531C4.69296 10.5265 4.72058 10.817 4.55225 10.9463C4.38372 11.0755 4.13019 10.9583 3.62354 10.7227L3.49268 10.6611C3.34895 10.5943 3.27686 10.5606 3.20068 10.5605C3.12438 10.5605 3.05169 10.5942 2.90771 10.6611L2.77686 10.7227C2.27035 10.9582 2.01665 11.0755 1.84814 10.9463C1.68004 10.8169 1.70745 10.5262 1.76318 9.94531L1.77783 9.79492C1.79368 9.62976 1.80139 9.54728 1.77783 9.4707C1.75425 9.39411 1.702 9.33183 1.59717 9.20801L1.50244 9.0957C1.13353 8.65996 0.948812 8.44151 1.01318 8.23242C1.07774 8.0236 1.34832 7.9615 1.88916 7.83789L2.02881 7.80566C2.18258 7.77052 2.26004 7.75339 2.32178 7.70605C2.38338 7.65872 2.42335 7.58668 2.50244 7.44336L2.57373 7.3125C2.85234 6.80766 2.99239 6.55566 3.20068 6.55566ZM20.8003 6.55566C21.0085 6.55566 21.1478 6.80786 21.4263 7.3125L21.4985 7.44336C21.5777 7.5868 21.6175 7.65872 21.6792 7.70605C21.7409 7.75334 21.8178 7.7706 21.9712 7.80566L22.1118 7.83789C22.6527 7.9615 22.9233 8.02355 22.9878 8.23242C23.0522 8.44151 22.8674 8.65996 22.4985 9.0957L22.4028 9.20801C22.2981 9.33175 22.2457 9.39414 22.2222 9.4707C22.1987 9.54722 22.2073 9.6299 22.2231 9.79492L22.2368 9.94531C22.2926 10.5267 22.3204 10.8171 22.1519 10.9463C21.9834 11.0754 21.7304 10.9581 21.2241 10.7227L21.0923 10.6611C20.9486 10.5943 20.8765 10.5605 20.8003 10.5605C20.7241 10.5606 20.652 10.5943 20.5083 10.6611L20.3774 10.7227C19.8708 10.9583 19.6173 11.0755 19.4487 10.9463C19.2802 10.8171 19.308 10.5267 19.3638 9.94531L19.3784 9.79492C19.3943 9.6299 19.4019 9.54723 19.3784 9.4707C19.3548 9.39412 19.3025 9.33179 19.1978 9.20801L19.1021 9.0957C18.7331 8.65996 18.5484 8.44151 18.6128 8.23242C18.6773 8.02354 18.948 7.96148 19.4888 7.83789L19.6294 7.80566C19.7829 7.77059 19.8597 7.75333 19.9214 7.70605C19.9831 7.65872 20.0229 7.58685 20.1021 7.44336L20.1743 7.3125C20.4528 6.80787 20.5921 6.55572 20.8003 6.55566ZM12.0005 1C12.417 1.00011 12.6962 1.50487 13.2534 2.51465L13.397 2.77637C13.5552 3.06313 13.6349 3.20613 13.7583 3.30078C13.8818 3.39546 14.0357 3.43069 14.3433 3.50098L14.6226 3.56543C15.7048 3.81277 16.2467 3.93631 16.3755 4.35449C16.5041 4.77263 16.1347 5.20869 15.397 6.08008L15.2065 6.30566C14.9969 6.55329 14.8914 6.6769 14.8442 6.83008C14.7972 6.98318 14.8135 7.1484 14.8452 7.47852L14.8735 7.7793C14.9851 8.94205 15.0407 9.52378 14.7036 9.78223C14.3666 10.0403 13.8601 9.80507 12.8472 9.33398L12.5845 9.21191C12.2968 9.07813 12.153 9.01078 12.0005 9.01074C11.8479 9.01074 11.7035 9.07799 11.4155 9.21191L11.1538 9.33398C10.1405 9.80526 9.63344 10.0407 9.29639 9.78223C8.9595 9.52372 9.01493 8.94188 9.12646 7.7793L9.15576 7.47852C9.18744 7.1483 9.20291 6.98322 9.15576 6.83008C9.10861 6.67694 9.00399 6.55318 8.79443 6.30566L8.604 6.08008C7.86624 5.20864 7.49681 4.77265 7.62549 4.35449C7.75422 3.93635 8.29541 3.81272 9.37744 3.56543L9.65771 3.50098C9.96524 3.43069 10.1192 3.39545 10.2427 3.30078C10.366 3.20611 10.4458 3.06308 10.604 2.77637L10.7476 2.51465C11.3049 1.50476 11.5839 1 12.0005 1Z" fill="white"/>
</mask>
<g mask="url(#mask0_24229_24937)">
<rect width="24" height="24" fill="url(#paint0_linear_24229_24937)"/>
</g>
<defs>
<linearGradient id="paint0_linear_24229_24937" x1="12" y1="0" x2="12" y2="24" gradientUnits="userSpaceOnUse">
<stop stop-color="#BFB0B3"/>
<stop offset="1" stop-color="#9A8487"/>
</linearGradient>
</defs>
</svg>
