<svg width="24" height="24" viewBox="0 0 24 24" fill="none" xmlns="http://www.w3.org/2000/svg">
<mask id="mask0_24229_24902" style="mask-type:alpha" maskUnits="userSpaceOnUse" x="0" y="0" width="24" height="24">
<path d="M13.3324 21.5245C16.4583 20.8979 20.5 18.6492 20.5 12.8343C20.5 7.54274 16.6267 4.01907 13.8415 2.39999C13.2235 2.04072 12.5 2.5132 12.5 3.22806V5.05654C12.5 6.4984 11.8938 9.13025 10.2093 10.2249C9.34932 10.7838 8.42052 9.94734 8.316 8.92702L8.23017 8.08919C8.1304 7.11518 7.13841 6.5239 6.35996 7.11774C4.96147 8.18458 3.5 10.0527 3.5 12.8343C3.5 19.9454 8.78889 21.7232 11.4333 21.7232C11.5871 21.7232 11.7488 21.7186 11.9171 21.7089C10.6113 21.5973 8.5 20.7872 8.5 18.1674C8.5 16.1181 9.99507 14.7316 11.131 14.0577C11.4365 13.8765 11.7941 14.1118 11.7941 14.4671V15.0563C11.7941 15.5072 11.9685 16.212 12.3836 16.6945C12.8534 17.2405 13.5429 16.6686 13.5985 15.9505C13.6161 15.7239 13.8439 15.5796 14.0401 15.6942C14.6814 16.069 15.5 16.8697 15.5 18.1674C15.5 20.2154 14.371 21.1575 13.3324 21.5245Z" fill="white"/>
</mask>
<g mask="url(#mask0_24229_24902)">
<rect width="24" height="24" fill="white"/>
</g>
</svg>
