<svg width="24" height="24" viewBox="0 0 24 24" fill="none" xmlns="http://www.w3.org/2000/svg">
<mask id="mask0_24229_24914" style="mask-type:alpha" maskUnits="userSpaceOnUse" x="0" y="0" width="24" height="24">
<path d="M14.7037 4.00181L14.4614 3.69574C13.5248 2.51266 13.0564 1.92112 12.5116 2.00845C11.9668 2.09577 11.7062 2.80412 11.1852 4.22083L11.0504 4.58735C10.9023 4.98993 10.8283 5.19122 10.6863 5.33897C10.5443 5.48671 10.3505 5.56417 9.96272 5.71911L9.36186 5.95933C8.16235 6.4406 7.55792 6.71331 7.48075 7.24324C7.39843 7.80849 7.97053 8.29205 9.11474 9.25915L9.41076 9.50935C9.73591 9.78417 9.89848 9.92158 9.99167 10.1089C10.0849 10.2962 10.0981 10.5121 10.1247 10.9441L10.1488 11.3373C10.2422 12.8574 10.2889 13.6174 10.7829 13.8794C11.2768 14.1414 11.8909 13.7319 13.1191 12.9129L13.4369 12.701C13.7859 12.4683 13.9604 12.3519 14.16 12.32C14.3596 12.288 14.5616 12.344 14.9658 12.456L15.3337 12.558C16.7559 12.9522 17.4669 13.1493 17.8545 12.746C18.2421 12.3427 18.0496 11.6061 17.6644 10.1328L17.5648 9.75163C17.4554 9.33297 17.4006 9.12364 17.4308 8.91657C17.4609 8.70951 17.5726 8.52816 17.7958 8.16546L17.999 7.83522C18.7846 6.55883 19.1774 5.92063 18.923 5.40935C18.6685 4.89806 17.9354 4.85229 16.4692 4.76076L16.0899 4.73708C15.6732 4.71107 15.4649 4.69807 15.2839 4.60208C15.103 4.5061 14.9699 4.338 14.7037 4.00181Z" fill="white"/>
<path d="M18.2346 15.4532C18.2919 15.3593 18.4837 15.4053 18.4922 15.515C18.5177 15.8449 18.5845 16.2614 18.7539 16.5376C18.9233 16.8138 19.2642 17.0623 19.5467 17.2346C19.6406 17.2918 19.5946 17.4837 19.485 17.4921C19.1551 17.5176 18.7385 17.5845 18.4623 17.7538C18.1862 17.9232 17.9377 18.2642 17.7654 18.5467C17.7081 18.6405 17.5163 18.5945 17.5078 18.4849C17.4823 18.155 17.4155 17.7384 17.2461 17.4623C17.0767 17.1861 16.7358 16.9376 16.4533 16.7653C16.3594 16.7081 16.4054 16.5162 16.515 16.5078C16.8449 16.4823 17.2615 16.4154 17.5377 16.246C17.8138 16.0767 18.0623 15.7357 18.2346 15.4532Z" fill="white"/>
<path d="M10.5176 16.4574C10.4637 16.3616 10.2817 16.4052 10.277 16.515C10.2552 17.0307 10.1698 17.8161 9.86913 18.3065C9.56842 18.7968 8.90707 19.229 8.45737 19.4823C8.36157 19.5363 8.4052 19.7182 8.51505 19.7229C9.03072 19.7448 9.81613 19.8301 10.3065 20.1308C10.7968 20.4315 11.229 21.0929 11.4823 21.5426C11.5363 21.6384 11.7182 21.5948 11.7229 21.4849C11.7448 20.9692 11.8301 20.1838 12.1308 19.6935C12.4315 19.2031 13.0929 18.771 13.5426 18.5176C13.6384 18.4637 13.5948 18.2817 13.4849 18.277C12.9692 18.2552 12.1838 18.1698 11.6935 17.8691C11.2031 17.5684 10.771 16.9071 10.5176 16.4574Z" fill="white"/>
<path d="M4.24844 18.0004C4.91931 16.0242 6.69772 14.3705 8.835 13.3263C8.73631 12.8158 8.69717 12.1764 8.65708 11.5214L8.62727 11.0359C8.62129 10.9386 8.61665 10.8634 8.61197 10.7991C8.56597 10.7594 8.51184 10.7136 8.44225 10.6548L8.07523 10.3446C7.56519 9.91372 7.06286 9.48936 6.71297 9.09294C6.54466 8.90224 6.35728 8.65825 6.21308 8.36353C4.53976 10.2529 3.49589 13.2929 4.24844 18.0004Z" fill="white"/>
</mask>
<g mask="url(#mask0_24229_24914)">
<rect width="24" height="24" fill="white"/>
</g>
</svg>
