<svg width="30" height="30" viewBox="0 0 30 30" fill="none" xmlns="http://www.w3.org/2000/svg">
    <g style="mix-blend-mode:luminosity">
        <g filter="url(#filter0_d_24392_33719)">
            <path d="M25.1034 6.73443C25.1034 6.73443 23.1235 6.84023 19.9066 6.16883C16.6897 5.49685 14.594 3.19897 14.594 3.19897C14.594 3.19897 12.4983 5.49685 9.28135 6.16883C6.06444 6.84023 4.08454 6.73443 4.08454 6.73443C4.08454 6.73443 3.94329 14.0169 6.94801 18.2244C9.95274 22.4312 14.594 24.199 14.594 24.199C14.594 24.199 19.2352 22.4312 22.24 18.2244C25.2447 14.0175 25.1034 6.73443 25.1034 6.73443Z" fill="url(#paint0_linear_24392_33719)"/>
            <path d="M14.8091 3.00269H14.8101C14.8108 3.00344 14.8123 3.00478 14.814 3.00659C14.8174 3.01023 14.8223 3.01645 14.8296 3.02417C14.8443 3.0397 14.8677 3.06298 14.8979 3.09351C14.9585 3.15454 15.049 3.24389 15.1685 3.35327C15.4079 3.57248 15.7617 3.8729 16.2134 4.19409C17.1184 4.83757 18.4093 5.55831 19.9663 5.88354C21.56 6.21615 22.8454 6.35519 23.73 6.41187C24.1723 6.4402 24.5144 6.44842 24.7446 6.44897C24.8596 6.44925 24.9467 6.44755 25.0044 6.44604C25.0332 6.44529 25.0549 6.44465 25.0688 6.44409C25.0758 6.44381 25.0813 6.44326 25.0845 6.44312C25.0858 6.44305 25.0868 6.44314 25.0874 6.44312L25.3892 6.42749L25.395 6.72925V6.75171C25.3952 6.76621 25.3958 6.78752 25.396 6.81519C25.3963 6.87095 25.396 6.95315 25.395 7.05835C25.393 7.26873 25.3866 7.57305 25.3696 7.95093C25.3356 8.70669 25.2592 9.75915 25.0874 10.9441C24.7451 13.3043 24.0205 16.2333 22.4771 18.3943C20.9458 20.538 19.0016 22.0555 17.4458 23.0359C16.6671 23.5266 15.9831 23.8844 15.4927 24.1199C15.2474 24.2376 15.0501 24.3254 14.9136 24.3835C14.8454 24.4126 14.7918 24.4343 14.7554 24.449C14.7373 24.4562 14.723 24.4618 14.7134 24.4656C14.7089 24.4673 14.7052 24.4685 14.7026 24.4695C14.7014 24.4699 14.7005 24.4711 14.6997 24.4714H14.6978L14.5942 24.5115L14.4897 24.4714H14.4888C14.488 24.4712 14.4871 24.47 14.4858 24.4695C14.4832 24.4685 14.479 24.4675 14.4741 24.4656C14.4644 24.4618 14.4503 24.4563 14.4321 24.449C14.3957 24.4343 14.3422 24.4126 14.2739 24.3835C14.1375 24.3254 13.9409 24.2375 13.6958 24.1199C13.2054 23.8844 12.5215 23.5266 11.7427 23.0359C10.1868 22.0555 8.24179 20.5382 6.71045 18.3943C5.16692 16.2329 4.44333 13.3033 4.10107 10.9431C3.92928 9.75834 3.8519 8.70658 3.81787 7.95093C3.80086 7.57304 3.79452 7.26873 3.79248 7.05835V6.72925L3.79834 6.42749L4.1001 6.44312C4.10074 6.44315 4.10241 6.44304 4.104 6.44312C4.1072 6.44326 4.11269 6.44381 4.11963 6.44409C4.13353 6.44465 4.15475 6.4453 4.18311 6.44604C4.24082 6.44756 4.32876 6.44925 4.44385 6.44897C4.67396 6.44841 5.01568 6.44017 5.45752 6.41187C6.34212 6.35519 7.62841 6.21618 9.22217 5.88354C10.7791 5.55824 12.0702 4.83755 12.9751 4.19409C13.4267 3.87296 13.7797 3.57245 14.019 3.35327C14.1387 3.24372 14.23 3.15457 14.2905 3.09351C14.3206 3.06312 14.3432 3.03969 14.3579 3.02417C14.3653 3.01641 14.3711 3.01025 14.3745 3.00659C14.376 3.00494 14.3768 3.00341 14.3774 3.00269H14.3784L14.5942 2.76636L14.8091 3.00269Z" stroke="white" stroke-width="0.583333"/>
        </g>
        <path d="M22.6381 9.27054C22.342 7.27408 19.2924 7.55895 17.7882 7.31191C16.2847 7.06545 14.4289 5.30127 14.4289 5.30127C14.4289 5.30127 12.5737 7.06545 11.0701 7.31191C9.5666 7.55836 6.51636 7.27349 6.22026 9.27054C5.92416 11.267 7.07605 16.1299 9.63515 18.8935C12.1943 21.6571 14.4289 21.9898 14.4289 21.9898C14.4289 21.9898 16.6635 21.6571 19.2226 18.8935C21.7817 16.1299 22.9336 11.267 22.6375 9.27054H22.6381Z" fill="url(#paint1_radial_24392_33719)"/>
        <path d="M14.4289 7.51587L15.5152 10.8628C15.5678 11.0253 14.9088 11.2706 13.7953 11.5005H19.9064L17.0631 13.5691C16.7404 13.8043 16.605 14.2204 16.7285 14.6004L17.8148 17.9473L14.9714 15.8788C14.832 15.7771 15.4277 14.9095 15.7865 14.5507C15.1464 14.9993 14.0713 15.7452 13.8881 15.8788L11.0447 17.9473L12.131 14.6004C12.2545 14.2204 12.1192 13.8037 11.7965 13.5691L8.95312 11.5005H12.4679C12.8668 11.5005 13.2209 11.2434 13.3444 10.8628L14.4307 7.51587H14.4289Z" fill="url(#paint2_linear_24392_33719)"/>
    </g>
    <defs>
        <filter id="filter0_d_24392_33719" x="0" y="-8.14199e-05" width="29.188" height="29.49" filterUnits="userSpaceOnUse" color-interpolation-filters="sRGB">
            <feFlood flood-opacity="0" result="BackgroundImageFix"/>
            <feColorMatrix in="SourceAlpha" type="matrix" values="0 0 0 0 0 0 0 0 0 0 0 0 0 0 0 0 0 0 127 0" result="hardAlpha"/>
            <feOffset dy="1.16667"/>
            <feGaussianBlur stdDeviation="1.75"/>
            <feComposite in2="hardAlpha" operator="out"/>
            <feColorMatrix type="matrix" values="0 0 0 0 1 0 0 0 0 0.592157 0 0 0 0 0.2 0 0 0 0.6 0"/>
            <feBlend mode="normal" in2="BackgroundImageFix" result="effect1_dropShadow_24392_33719"/>
            <feBlend mode="normal" in="SourceGraphic" in2="effect1_dropShadow_24392_33719" result="shape"/>
        </filter>
        <linearGradient id="paint0_linear_24392_33719" x1="14.594" y1="3.19897" x2="14.594" y2="24.199" gradientUnits="userSpaceOnUse">
            <stop stop-color="#FFB183"/>
            <stop offset="1" stop-color="#986144"/>
        </linearGradient>
        <radialGradient id="paint1_radial_24392_33719" cx="0" cy="0" r="1" gradientUnits="userSpaceOnUse" gradientTransform="translate(14.4289 13.6455) rotate(90) scale(8.34427 8.25408)">
            <stop stop-color="#C60200"/>
            <stop offset="1" stop-color="#310000"/>
        </radialGradient>
        <linearGradient id="paint2_linear_24392_33719" x1="11.4118" y1="12.7144" x2="15.1943" y2="18.9201" gradientUnits="userSpaceOnUse">
            <stop stop-color="#FF9B37"/>
            <stop offset="1" stop-color="#FC6800"/>
        </linearGradient>
    </defs>
</svg>