<svg width="28" height="28" viewBox="0 0 28 28" fill="none" xmlns="http://www.w3.org/2000/svg">
    <g clip-path="url(#clip0_24392_33731)">
        <mask id="mask0_24392_33731" style="mask-type:alpha" maskUnits="userSpaceOnUse" x="0" y="0" width="28" height="28">
            <path d="M25.6668 9.52265L25.6668 9.60726C25.6667 10.6115 25.6667 11.1136 25.425 11.5244C25.1833 11.9352 24.7444 12.179 23.8665 12.6667L22.941 13.1809C23.5788 11.0247 23.7916 8.70808 23.8702 6.72689C23.8736 6.64194 23.8774 6.55595 23.8812 6.46905L23.8839 6.40817C24.6437 6.67204 25.0703 6.86876 25.3365 7.23801C25.6668 7.69633 25.6668 8.3051 25.6668 9.52265Z" fill="white"/>
            <path d="M2.3335 9.52265L2.3335 9.60726C2.33353 10.6115 2.33354 11.1136 2.57526 11.5244C2.81698 11.9352 3.2559 12.179 4.13372 12.6667L5.05977 13.1812C4.42191 11.0249 4.20911 8.70817 4.13046 6.72689C4.12708 6.64194 4.12328 6.55595 4.11944 6.46905L4.11675 6.40803C3.35667 6.67197 2.92996 6.86869 2.66378 7.23801C2.33345 7.69633 2.33346 8.30511 2.3335 9.52265Z" fill="white"/>
            <path fill-rule="evenodd" clip-rule="evenodd" d="M14.0003 2.33325C16.0811 2.33325 17.7954 2.51652 19.1068 2.73778C20.4353 2.96194 21.0996 3.07401 21.6546 3.75756C22.2096 4.4411 22.1803 5.17989 22.1216 6.65747C21.9202 11.7301 20.8255 18.0661 14.8752 18.6266V22.7499H16.5437C17.0999 22.7499 17.5787 23.1425 17.6877 23.6878L17.9085 24.7916H21.0002C21.4834 24.7916 21.8752 25.1833 21.8752 25.6666C21.8752 26.1498 21.4834 26.5416 21.0002 26.5416H7.00016C6.51691 26.5416 6.12516 26.1498 6.12516 25.6666C6.12516 25.1833 6.51691 24.7916 7.00016 24.7916H10.0918L10.3126 23.6878C10.4217 23.1425 10.9005 22.7499 11.4566 22.7499H13.1252V18.6265C7.17511 18.0658 6.08046 11.73 5.87908 6.65747C5.82042 5.17989 5.79109 4.4411 6.34609 3.75756C6.90109 3.07401 7.56535 2.96194 8.89387 2.73778C10.2053 2.51652 11.9195 2.33325 14.0003 2.33325ZM15.1113 7.23193L14.9966 7.02618C14.5532 6.2309 14.3316 5.83325 14.0002 5.83325C13.6688 5.83325 13.4471 6.2309 13.0038 7.02618L12.8891 7.23193C12.7631 7.45793 12.7001 7.57093 12.6019 7.64548C12.5037 7.72004 12.3814 7.74772 12.1367 7.80307L11.914 7.85346C11.0531 8.04825 10.6227 8.14564 10.5203 8.47496C10.4179 8.80428 10.7113 9.14743 11.2982 9.83373L11.45 10.0113C11.6168 10.2063 11.7002 10.3038 11.7377 10.4245C11.7752 10.5451 11.7626 10.6752 11.7374 10.9354L11.7145 11.1723C11.6257 12.088 11.5814 12.5458 11.8495 12.7493C12.1176 12.9529 12.5206 12.7673 13.3266 12.3962L13.5352 12.3001C13.7642 12.1947 13.8788 12.142 14.0002 12.142C14.1216 12.142 14.2361 12.1947 14.4651 12.3001L14.6737 12.3962C15.4797 12.7673 15.8828 12.9529 16.1509 12.7493C16.419 12.5458 16.3746 12.088 16.2859 11.1723L16.2629 10.9354C16.2377 10.6752 16.2251 10.5451 16.2626 10.4245C16.3001 10.3038 16.3835 10.2063 16.5503 10.0113L16.7021 9.83373C17.289 9.14743 17.5825 8.80428 17.4801 8.47496C17.3777 8.14564 16.9472 8.04825 16.0863 7.85346L15.8636 7.80307C15.619 7.74772 15.4966 7.72004 15.3984 7.64548C15.3002 7.57093 15.2372 7.45793 15.1113 7.23193Z" fill="white"/>
        </mask>
        <g mask="url(#mask0_24392_33731)">
            <rect width="28" height="28" fill="#F9B062"/>
        </g>
    </g>
    <defs>
        <clipPath id="clip0_24392_33731">
            <rect width="28" height="28" fill="white"/>
        </clipPath>
    </defs>
</svg>
