<svg width="28" height="28" viewBox="0 0 28 28" fill="none" xmlns="http://www.w3.org/2000/svg">
    <g clip-path="url(#clip0_24392_33749)">
        <mask id="mask0_24392_33749" style="mask-type:alpha" maskUnits="userSpaceOnUse" x="0" y="0" width="28" height="28">
            <path d="M25.6665 9.52265L25.6665 9.60726C25.6665 10.6115 25.6665 11.1136 25.4248 11.5244C25.183 11.9352 24.7441 12.179 23.8663 12.6667L22.9408 13.1809C23.5785 11.0247 23.7913 8.70808 23.87 6.72689C23.8734 6.64194 23.8772 6.55595 23.881 6.46905L23.8837 6.40817C24.6435 6.67204 25.0701 6.86876 25.3362 7.23801C25.6666 7.69633 25.6666 8.3051 25.6665 9.52265Z" fill="white"/>
            <path d="M2.33325 9.52265L2.33326 9.60726C2.33328 10.6115 2.3333 11.1136 2.57502 11.5244C2.81674 11.9352 3.25565 12.179 4.13347 12.6667L5.05953 13.1812C4.42167 11.0249 4.20887 8.70817 4.13021 6.72689C4.12684 6.64194 4.12304 6.55595 4.1192 6.46905L4.11651 6.40803C3.35643 6.67197 2.92972 6.86869 2.66353 7.23801C2.3332 7.69633 2.33322 8.30511 2.33325 9.52265Z" fill="white"/>
            <path fill-rule="evenodd" clip-rule="evenodd" d="M14.0001 2.33325C16.0809 2.33325 17.7952 2.51652 19.1066 2.73778C20.4351 2.96194 21.0993 3.07401 21.6544 3.75756C22.2094 4.4411 22.18 5.17989 22.1214 6.65747C21.92 11.7301 20.8253 18.0661 14.8749 18.6266V22.7499H16.5435C17.0996 22.7499 17.5784 23.1425 17.6875 23.6878L17.9083 24.7916H20.9999C21.4832 24.7916 21.8749 25.1833 21.8749 25.6666C21.8749 26.1498 21.4832 26.5416 20.9999 26.5416H6.99992C6.51667 26.5416 6.12492 26.1498 6.12492 25.6666C6.12492 25.1833 6.51667 24.7916 6.99992 24.7916H10.0916L10.3123 23.6878C10.4214 23.1425 10.9002 22.7499 11.4564 22.7499H13.1249V18.6265C7.17487 18.0658 6.08022 11.73 5.87883 6.65747C5.82017 5.17989 5.79084 4.4411 6.34585 3.75756C6.90085 3.07401 7.56511 2.96194 8.89363 2.73778C10.205 2.51652 11.9193 2.33325 14.0001 2.33325ZM15.111 7.23193L14.9963 7.02618C14.553 6.2309 14.3313 5.83325 13.9999 5.83325C13.6685 5.83325 13.4469 6.2309 13.0035 7.02618L12.8888 7.23193C12.7629 7.45793 12.6999 7.57093 12.6016 7.64548C12.5034 7.72004 12.3811 7.74772 12.1365 7.80307L11.9138 7.85346C11.0529 8.04825 10.6224 8.14564 10.52 8.47496C10.4176 8.80428 10.7111 9.14743 11.298 9.83373L11.4498 10.0113C11.6166 10.2063 11.7 10.3038 11.7375 10.4245C11.775 10.5451 11.7624 10.6752 11.7372 10.9354L11.7142 11.1723C11.6255 12.088 11.5811 12.5458 11.8492 12.7493C12.1173 12.9529 12.5204 12.7673 13.3264 12.3962L13.5349 12.3001C13.764 12.1947 13.8785 12.142 13.9999 12.142C14.1213 12.142 14.2358 12.1947 14.4649 12.3001L14.6734 12.3962C15.4795 12.7673 15.8825 12.9529 16.1506 12.7493C16.4187 12.5458 16.3744 12.088 16.2856 11.1723L16.2627 10.9354C16.2375 10.6752 16.2249 10.5451 16.2624 10.4245C16.2999 10.3038 16.3833 10.2063 16.55 10.0113L16.7019 9.83373C17.2888 9.14743 17.5822 8.80428 17.4798 8.47496C17.3774 8.14564 16.947 8.04825 16.0861 7.85346L15.8634 7.80307C15.6187 7.74772 15.4964 7.72004 15.3982 7.64548C15.3 7.57093 15.237 7.45793 15.111 7.23193Z" fill="white"/>
        </mask>
        <g mask="url(#mask0_24392_33749)">
            <rect width="28" height="28" fill="#C56907"/>
        </g>
    </g>
    <defs>
        <clipPath id="clip0_24392_33749">
            <rect width="28" height="28" fill="white"/>
        </clipPath>
    </defs>
</svg>
