<svg width="53" height="28" viewBox="0 0 53 28" fill="none" xmlns="http://www.w3.org/2000/svg">
<g filter="url(#filter0_ddf_29_1367)">
<path d="M14.3145 23.2621C14.2463 22.8215 14.2238 22.5417 14.0906 22.3611C13.8729 22.1367 13.4956 22.1153 12.8024 22.0646C13.4844 21.9992 13.8531 21.985 14.0714 21.7794C14.2345 21.5974 14.2621 21.3158 14.3145 20.867C14.4034 21.449 14.4173 21.7429 14.7396 21.9102C14.9687 21.9978 15.3105 22.0169 15.8266 22.0646C15.1867 22.1266 14.8154 22.1409 14.5944 22.2957C14.4075 22.4722 14.3876 22.7652 14.3145 23.2621Z" fill="url(#paint0_linear_29_1367)"/>
</g>
<g filter="url(#filter1_f_29_1367)">
<path d="M40.0202 25.1793C39.9747 24.959 39.9597 24.8191 39.8709 24.7288C39.7258 24.6166 39.4742 24.6059 39.0121 24.5805C39.4667 24.5478 39.7126 24.5408 39.8581 24.4379C39.9669 24.3469 39.9853 24.2061 40.0202 23.9817C40.0794 24.2728 40.0887 24.4197 40.3035 24.5033C40.4563 24.5471 40.6842 24.5567 41.0282 24.5805C40.6016 24.6116 40.3541 24.6187 40.2068 24.6961C40.0822 24.7843 40.0689 24.9308 40.0202 25.1793Z" fill="url(#paint1_linear_29_1367)"/>
</g>
<g filter="url(#filter2_ddf_29_1367)">
<path d="M20.8669 15.0986C20.8215 14.8783 20.8064 14.7385 20.7177 14.6482C20.5725 14.5359 20.321 14.5252 19.8588 14.4999C20.3135 14.4672 20.5593 14.4601 20.7049 14.3573C20.8136 14.2663 20.832 14.1255 20.8669 13.9011C20.9262 14.1921 20.9355 14.339 21.1503 14.4227C21.303 14.4665 21.5309 14.4761 21.875 14.4999C21.4484 14.5309 21.2009 14.538 21.0535 14.6155C20.9289 14.7037 20.9156 14.8502 20.8669 15.0986Z" fill="url(#paint2_linear_29_1367)"/>
</g>
<g filter="url(#filter3_ddf_29_1367)">
<path d="M4.73786 11.0659C4.69242 10.8456 4.6774 10.7057 4.58862 10.6154C4.44349 10.5032 4.19193 10.4925 3.72979 10.4671C4.18444 10.4344 4.43026 10.4274 4.57581 10.3245C4.68456 10.2335 4.70296 10.0927 4.73786 9.86833C4.79714 10.1593 4.80643 10.3063 5.02124 10.3899C5.17398 10.4337 5.40189 10.4433 5.74592 10.4671C5.31933 10.4981 5.07183 10.5053 4.92447 10.5827C4.79987 10.6709 4.78658 10.8174 4.73786 11.0659Z" fill="url(#paint3_linear_29_1367)"/>
</g>
<g filter="url(#filter4_ddf_29_1367)">
<path d="M32.4597 7.7621C32.3915 7.20578 32.369 6.85253 32.2358 6.62449C32.0181 6.34105 31.6408 6.31405 30.9476 6.25C31.6295 6.16749 31.9983 6.1496 32.2166 5.88995C32.3797 5.66009 32.4073 5.30453 32.4597 4.73791C32.5486 5.47279 32.5625 5.8439 32.8847 6.05507C33.1138 6.16573 33.4557 6.18989 33.9718 6.25C33.3319 6.3284 32.9606 6.34644 32.7396 6.54191C32.5527 6.76472 32.5327 7.13469 32.4597 7.7621Z" fill="url(#paint4_linear_29_1367)"/>
</g>
<g filter="url(#filter5_ddf_29_1367)">
<path d="M45.0605 14.8186C44.9696 14.0768 44.9396 13.6058 44.762 13.3017C44.4717 12.9238 43.9686 12.8878 43.0444 12.8024C43.9536 12.6924 44.4453 12.6686 44.7364 12.3224C44.9539 12.0159 44.9907 11.5418 45.0605 10.7863C45.179 11.7661 45.1976 12.261 45.6272 12.5425C45.9327 12.6901 46.3885 12.7223 47.0766 12.8024C46.2234 12.907 45.7284 12.931 45.4337 13.1916C45.1845 13.4887 45.1579 13.982 45.0605 14.8186Z" fill="url(#paint5_linear_29_1367)"/>
</g>
<defs>
<filter id="filter0_ddf_29_1367" x="9.07254" y="16.1291" width="12.5" height="11.8709" filterUnits="userSpaceOnUse" color-interpolation-filters="sRGB">
<feFlood flood-opacity="0" result="BackgroundImageFix"/>
<feColorMatrix in="SourceAlpha" type="matrix" values="0 0 0 0 0 0 0 0 0 0 0 0 0 0 0 0 0 0 127 0" result="hardAlpha"/>
<feOffset/>
<feGaussianBlur stdDeviation="1"/>
<feComposite in2="hardAlpha" operator="out"/>
<feColorMatrix type="matrix" values="0 0 0 0 1 0 0 0 0 0.737255 0 0 0 0 0.439216 0 0 0 1 0"/>
<feBlend mode="normal" in2="BackgroundImageFix" result="effect1_dropShadow_29_1367"/>
<feColorMatrix in="SourceAlpha" type="matrix" values="0 0 0 0 0 0 0 0 0 0 0 0 0 0 0 0 0 0 127 0" result="hardAlpha"/>
<feOffset dx="1"/>
<feGaussianBlur stdDeviation="2.35"/>
<feComposite in2="hardAlpha" operator="out"/>
<feColorMatrix type="matrix" values="0 0 0 0 1 0 0 0 0 0.737588 0 0 0 0 0.437688 0 0 0 0.7 0"/>
<feBlend mode="normal" in2="effect1_dropShadow_29_1367" result="effect2_dropShadow_29_1367"/>
<feBlend mode="normal" in="SourceGraphic" in2="effect2_dropShadow_29_1367" result="shape"/>
<feGaussianBlur stdDeviation="0.5" result="effect3_foregroundBlur_29_1367"/>
</filter>
<filter id="filter1_f_29_1367" x="38.004" y="22.9737" width="4.03226" height="3.21367" filterUnits="userSpaceOnUse" color-interpolation-filters="sRGB">
<feFlood flood-opacity="0" result="BackgroundImageFix"/>
<feBlend mode="normal" in="SourceGraphic" in2="BackgroundImageFix" result="shape"/>
<feGaussianBlur stdDeviation="0.5" result="effect1_foregroundBlur_29_1367"/>
</filter>
<filter id="filter2_ddf_29_1367" x="16.129" y="9.16319" width="11.4919" height="10.6734" filterUnits="userSpaceOnUse" color-interpolation-filters="sRGB">
<feFlood flood-opacity="0" result="BackgroundImageFix"/>
<feColorMatrix in="SourceAlpha" type="matrix" values="0 0 0 0 0 0 0 0 0 0 0 0 0 0 0 0 0 0 127 0" result="hardAlpha"/>
<feOffset/>
<feGaussianBlur stdDeviation="1"/>
<feComposite in2="hardAlpha" operator="out"/>
<feColorMatrix type="matrix" values="0 0 0 0 1 0 0 0 0 0.737255 0 0 0 0 0.439216 0 0 0 1 0"/>
<feBlend mode="normal" in2="BackgroundImageFix" result="effect1_dropShadow_29_1367"/>
<feColorMatrix in="SourceAlpha" type="matrix" values="0 0 0 0 0 0 0 0 0 0 0 0 0 0 0 0 0 0 127 0" result="hardAlpha"/>
<feOffset dx="1"/>
<feGaussianBlur stdDeviation="2.35"/>
<feComposite in2="hardAlpha" operator="out"/>
<feColorMatrix type="matrix" values="0 0 0 0 1 0 0 0 0 0.737588 0 0 0 0 0.437688 0 0 0 0.7 0"/>
<feBlend mode="normal" in2="effect1_dropShadow_29_1367" result="effect2_dropShadow_29_1367"/>
<feBlend mode="normal" in="SourceGraphic" in2="effect2_dropShadow_29_1367" result="shape"/>
<feGaussianBlur stdDeviation="0.5" result="effect3_foregroundBlur_29_1367"/>
</filter>
<filter id="filter3_ddf_29_1367" x="-4.90297e-05" y="5.13043" width="11.4919" height="10.6734" filterUnits="userSpaceOnUse" color-interpolation-filters="sRGB">
<feFlood flood-opacity="0" result="BackgroundImageFix"/>
<feColorMatrix in="SourceAlpha" type="matrix" values="0 0 0 0 0 0 0 0 0 0 0 0 0 0 0 0 0 0 127 0" result="hardAlpha"/>
<feOffset/>
<feGaussianBlur stdDeviation="1"/>
<feComposite in2="hardAlpha" operator="out"/>
<feColorMatrix type="matrix" values="0 0 0 0 1 0 0 0 0 0.737255 0 0 0 0 0.439216 0 0 0 1 0"/>
<feBlend mode="normal" in2="BackgroundImageFix" result="effect1_dropShadow_29_1367"/>
<feColorMatrix in="SourceAlpha" type="matrix" values="0 0 0 0 0 0 0 0 0 0 0 0 0 0 0 0 0 0 127 0" result="hardAlpha"/>
<feOffset dx="1"/>
<feGaussianBlur stdDeviation="2.35"/>
<feComposite in2="hardAlpha" operator="out"/>
<feColorMatrix type="matrix" values="0 0 0 0 1 0 0 0 0 0.737588 0 0 0 0 0.437688 0 0 0 0.7 0"/>
<feBlend mode="normal" in2="effect1_dropShadow_29_1367" result="effect2_dropShadow_29_1367"/>
<feBlend mode="normal" in="SourceGraphic" in2="effect2_dropShadow_29_1367" result="shape"/>
<feGaussianBlur stdDeviation="0.5" result="effect3_foregroundBlur_29_1367"/>
</filter>
<filter id="filter4_ddf_29_1367" x="27.2177" y="-2.8841e-06" width="12.5" height="12.5" filterUnits="userSpaceOnUse" color-interpolation-filters="sRGB">
<feFlood flood-opacity="0" result="BackgroundImageFix"/>
<feColorMatrix in="SourceAlpha" type="matrix" values="0 0 0 0 0 0 0 0 0 0 0 0 0 0 0 0 0 0 127 0" result="hardAlpha"/>
<feOffset/>
<feGaussianBlur stdDeviation="1"/>
<feComposite in2="hardAlpha" operator="out"/>
<feColorMatrix type="matrix" values="0 0 0 0 1 0 0 0 0 0.737255 0 0 0 0 0.439216 0 0 0 1 0"/>
<feBlend mode="normal" in2="BackgroundImageFix" result="effect1_dropShadow_29_1367"/>
<feColorMatrix in="SourceAlpha" type="matrix" values="0 0 0 0 0 0 0 0 0 0 0 0 0 0 0 0 0 0 127 0" result="hardAlpha"/>
<feOffset dx="1"/>
<feGaussianBlur stdDeviation="2.35"/>
<feComposite in2="hardAlpha" operator="out"/>
<feColorMatrix type="matrix" values="0 0 0 0 1 0 0 0 0 0.737588 0 0 0 0 0.437688 0 0 0 0.7 0"/>
<feBlend mode="normal" in2="effect1_dropShadow_29_1367" result="effect2_dropShadow_29_1367"/>
<feBlend mode="normal" in="SourceGraphic" in2="effect2_dropShadow_29_1367" result="shape"/>
<feGaussianBlur stdDeviation="0.5" result="effect3_foregroundBlur_29_1367"/>
</filter>
<filter id="filter5_ddf_29_1367" x="39.3145" y="6.04839" width="13.5081" height="13.5081" filterUnits="userSpaceOnUse" color-interpolation-filters="sRGB">
<feFlood flood-opacity="0" result="BackgroundImageFix"/>
<feColorMatrix in="SourceAlpha" type="matrix" values="0 0 0 0 0 0 0 0 0 0 0 0 0 0 0 0 0 0 127 0" result="hardAlpha"/>
<feOffset/>
<feGaussianBlur stdDeviation="1"/>
<feComposite in2="hardAlpha" operator="out"/>
<feColorMatrix type="matrix" values="0 0 0 0 1 0 0 0 0 0.737255 0 0 0 0 0.439216 0 0 0 1 0"/>
<feBlend mode="normal" in2="BackgroundImageFix" result="effect1_dropShadow_29_1367"/>
<feColorMatrix in="SourceAlpha" type="matrix" values="0 0 0 0 0 0 0 0 0 0 0 0 0 0 0 0 0 0 127 0" result="hardAlpha"/>
<feOffset dx="1"/>
<feGaussianBlur stdDeviation="2.35"/>
<feComposite in2="hardAlpha" operator="out"/>
<feColorMatrix type="matrix" values="0 0 0 0 1 0 0 0 0 0.737588 0 0 0 0 0.437688 0 0 0 0.7 0"/>
<feBlend mode="normal" in2="effect1_dropShadow_29_1367" result="effect2_dropShadow_29_1367"/>
<feBlend mode="normal" in="SourceGraphic" in2="effect2_dropShadow_29_1367" result="shape"/>
<feGaussianBlur stdDeviation="0.5" result="effect3_foregroundBlur_29_1367"/>
</filter>
<linearGradient id="paint0_linear_29_1367" x1="14.3151" y1="23.3662" x2="14.3151" y2="20.867" gradientUnits="userSpaceOnUse">
<stop stop-color="white"/>
<stop offset="0.643228" stop-color="white"/>
<stop offset="1" stop-color="white"/>
</linearGradient>
<linearGradient id="paint1_linear_29_1367" x1="40.0206" y1="25.2314" x2="40.0206" y2="23.9817" gradientUnits="userSpaceOnUse">
<stop stop-color="white"/>
<stop offset="0.643228" stop-color="white"/>
<stop offset="1" stop-color="white"/>
</linearGradient>
<linearGradient id="paint2_linear_29_1367" x1="20.8674" y1="15.1507" x2="20.8674" y2="13.9011" gradientUnits="userSpaceOnUse">
<stop stop-color="white"/>
<stop offset="0.643228" stop-color="white"/>
<stop offset="1" stop-color="white"/>
</linearGradient>
<linearGradient id="paint3_linear_29_1367" x1="4.7383" y1="11.1179" x2="4.7383" y2="9.86833" gradientUnits="userSpaceOnUse">
<stop stop-color="white"/>
<stop offset="0.643228" stop-color="white"/>
<stop offset="1" stop-color="white"/>
</linearGradient>
<linearGradient id="paint4_linear_29_1367" x1="32.4603" y1="7.89359" x2="32.4603" y2="4.73791" gradientUnits="userSpaceOnUse">
<stop stop-color="white"/>
<stop offset="0.643228" stop-color="white"/>
<stop offset="1" stop-color="white"/>
</linearGradient>
<linearGradient id="paint5_linear_29_1367" x1="45.0614" y1="14.9939" x2="45.0614" y2="10.7863" gradientUnits="userSpaceOnUse">
<stop stop-color="white"/>
<stop offset="0.643228" stop-color="white"/>
<stop offset="1" stop-color="white"/>
</linearGradient>
</defs>
</svg>
