<svg width="24" height="24" viewBox="0 0 24 24" fill="none" xmlns="http://www.w3.org/2000/svg">
<g clip-path="url(#clip0_0_80)">
<path d="M0 4C0 1.79086 1.79086 0 4 0H20C22.2091 0 24 1.79086 24 4V20C24 22.2091 22.2091 24 20 24H4C1.79086 24 0 22.2091 0 20V4Z" fill="url(#paint0_linear_0_80)"/>
<path d="M15 16V15C15 14.4696 14.7893 13.9609 14.4142 13.5858C14.0391 13.2107 13.5304 13 13 13H9C8.46957 13 7.96086 13.2107 7.58579 13.5858C7.21071 13.9609 7 14.4696 7 15V16" stroke="#493C3E" stroke-linecap="round" stroke-linejoin="round"/>
<path d="M11 11C12.1046 11 13 10.1046 13 9C13 7.89543 12.1046 7 11 7C9.89543 7 9 7.89543 9 9C9 10.1046 9.89543 11 11 11Z" stroke="#493C3E" stroke-linecap="round" stroke-linejoin="round"/>
<path d="M18 15.9999V14.9999C17.9997 14.5568 17.8522 14.1263 17.5807 13.7761C17.3092 13.4259 16.9291 13.1757 16.5 13.0649" stroke="#493C3E" stroke-linecap="round" stroke-linejoin="round"/>
<path d="M14.5 7.06494C14.9302 7.17509 15.3115 7.42529 15.5838 7.7761C15.8561 8.1269 16.0039 8.55836 16.0039 9.00244C16.0039 9.44653 15.8561 9.87798 15.5838 10.2288C15.3115 10.5796 14.9302 10.8298 14.5 10.9399" stroke="#493C3E" stroke-linecap="round" stroke-linejoin="round"/>
</g>
<defs>
<linearGradient id="paint0_linear_0_80" x1="12" y1="0" x2="12" y2="24" gradientUnits="userSpaceOnUse">
<stop stop-color="#FBCE9D"/>
<stop offset="1" stop-color="#F9B062"/>
</linearGradient>
<clipPath id="clip0_0_80">
<path d="M0 4C0 1.79086 1.79086 0 4 0H20C22.2091 0 24 1.79086 24 4V20C24 22.2091 22.2091 24 20 24H4C1.79086 24 0 22.2091 0 20V4Z" fill="white"/>
</clipPath>
</defs>
</svg>
