<svg width="24" height="24" viewBox="0 0 24 24" fill="none" xmlns="http://www.w3.org/2000/svg">
<g clip-path="url(#clip0_0_152)">
<path d="M0 4C0 1.79086 1.79086 0 4 0H20C22.2091 0 24 1.79086 24 4V20C24 22.2091 22.2091 24 20 24H4C1.79086 24 0 22.2091 0 20V4Z" fill="url(#paint0_linear_0_152)"/>
<path d="M10.9717 12.4668C11.1864 12.7538 11.4604 12.9914 11.775 13.1632C12.0896 13.3351 12.4374 13.4373 12.795 13.4629C13.1526 13.4886 13.5115 13.437 13.8474 13.3117C14.1832 13.1864 14.4882 12.9903 14.7417 12.7368L16.2417 11.2368C16.6971 10.7653 16.9491 10.1338 16.9434 9.47828C16.9377 8.82278 16.6747 8.19575 16.2112 7.73223C15.7477 7.26871 15.1207 7.00579 14.4652 7.00009C13.8097 6.9944 13.1782 7.24638 12.7067 7.70178L11.8467 8.55678" stroke="#493C3E" stroke-linecap="round" stroke-linejoin="round"/>
<path d="M12.9718 11.4668C12.7571 11.1797 12.4831 10.9422 12.1685 10.7703C11.8539 10.5984 11.506 10.4962 11.1485 10.4706C10.7909 10.445 10.432 10.4966 10.0961 10.6219C9.76023 10.7472 9.45522 10.9433 9.20178 11.1968L7.70178 12.6968C7.24638 13.1683 6.9944 13.7998 7.00009 14.4553C7.00579 15.1108 7.26871 15.7378 7.73223 16.2013C8.19575 16.6649 8.82278 16.9278 9.47828 16.9335C10.1338 16.9392 10.7653 16.6872 11.2368 16.2318L12.0918 15.3768" stroke="#493C3E" stroke-linecap="round" stroke-linejoin="round"/>
</g>
<defs>
<linearGradient id="paint0_linear_0_152" x1="12" y1="0" x2="12" y2="24" gradientUnits="userSpaceOnUse">
<stop stop-color="#FBCE9D"/>
<stop offset="1" stop-color="#F9B062"/>
</linearGradient>
<clipPath id="clip0_0_152">
<path d="M0 4C0 1.79086 1.79086 0 4 0H20C22.2091 0 24 1.79086 24 4V20C24 22.2091 22.2091 24 20 24H4C1.79086 24 0 22.2091 0 20V4Z" fill="white"/>
</clipPath>
</defs>
</svg>
