<svg width="24" height="24" viewBox="0 0 24 24" fill="none" xmlns="http://www.w3.org/2000/svg">
<g clip-path="url(#clip0_0_140)">
<path d="M0 4C0 1.79086 1.79086 0 4 0H20C22.2091 0 24 1.79086 24 4V20C24 22.2091 22.2091 24 20 24H4C1.79086 24 0 22.2091 0 20V4Z" fill="url(#paint0_linear_0_140)"/>
<path d="M16 9H8C7.44772 9 7 9.44772 7 10V15C7 15.5523 7.44772 16 8 16H16C16.5523 16 17 15.5523 17 15V10C17 9.44772 16.5523 9 16 9Z" stroke="#493C3E" stroke-linecap="round" stroke-linejoin="round"/>
<path d="M14 16V8C14 7.73478 13.8946 7.48043 13.7071 7.29289C13.5196 7.10536 13.2652 7 13 7H11C10.7348 7 10.4804 7.10536 10.2929 7.29289C10.1054 7.48043 10 7.73478 10 8V16" stroke="#493C3E" stroke-linecap="round" stroke-linejoin="round"/>
</g>
<defs>
<linearGradient id="paint0_linear_0_140" x1="12" y1="0" x2="12" y2="24" gradientUnits="userSpaceOnUse">
<stop stop-color="#FBCE9D"/>
<stop offset="1" stop-color="#F9B062"/>
</linearGradient>
<clipPath id="clip0_0_140">
<path d="M0 4C0 1.79086 1.79086 0 4 0H20C22.2091 0 24 1.79086 24 4V20C24 22.2091 22.2091 24 20 24H4C1.79086 24 0 22.2091 0 20V4Z" fill="white"/>
</clipPath>
</defs>
</svg>
