<svg width="24" height="24" viewBox="0 0 24 24" fill="none" xmlns="http://www.w3.org/2000/svg">
<g clip-path="url(#clip0_0_106)">
<path d="M0 4C0 1.79086 1.79086 0 4 0H20C22.2091 0 24 1.79086 24 4V20C24 22.2091 22.2091 24 20 24H4C1.79086 24 0 22.2091 0 20V4Z" fill="url(#paint0_linear_0_106)"/>
<path d="M18 9L13.25 13.75L10.75 11.25L7 15" stroke="#493C3E" stroke-linecap="round" stroke-linejoin="round"/>
<path d="M15 9H18V12" stroke="#493C3E" stroke-linecap="round" stroke-linejoin="round"/>
</g>
<defs>
<linearGradient id="paint0_linear_0_106" x1="12" y1="0" x2="12" y2="24" gradientUnits="userSpaceOnUse">
<stop stop-color="#FBCE9D"/>
<stop offset="1" stop-color="#F9B062"/>
</linearGradient>
<clipPath id="clip0_0_106">
<path d="M0 4C0 1.79086 1.79086 0 4 0H20C22.2091 0 24 1.79086 24 4V20C24 22.2091 22.2091 24 20 24H4C1.79086 24 0 22.2091 0 20V4Z" fill="white"/>
</clipPath>
</defs>
</svg>
