<svg width="24" height="24" viewBox="0 0 24 24" fill="none" xmlns="http://www.w3.org/2000/svg">
<g clip-path="url(#clip0_0_49)">
<path d="M0 4C0 1.79086 1.79086 0 4 0H20C22.2091 0 24 1.79086 24 4V20C24 22.2091 22.2091 24 20 24H4C1.79086 24 0 22.2091 0 20V4Z" fill="url(#paint0_linear_0_49)"/>
<path d="M12 7V9" stroke="#493C3E" stroke-linecap="round" stroke-linejoin="round"/>
<path d="M12 15V17" stroke="#493C3E" stroke-linecap="round" stroke-linejoin="round"/>
<path d="M8.46484 8.46497L9.87984 9.87997" stroke="#493C3E" stroke-linecap="round" stroke-linejoin="round"/>
<path d="M14.1201 14.12L15.5351 15.535" stroke="#493C3E" stroke-linecap="round" stroke-linejoin="round"/>
<path d="M7 12H9" stroke="#493C3E" stroke-linecap="round" stroke-linejoin="round"/>
<path d="M15 12H17" stroke="#493C3E" stroke-linecap="round" stroke-linejoin="round"/>
<path d="M8.46484 15.535L9.87984 14.12" stroke="#493C3E" stroke-linecap="round" stroke-linejoin="round"/>
<path d="M14.1201 9.87997L15.5351 8.46497" stroke="#493C3E" stroke-linecap="round" stroke-linejoin="round"/>
</g>
<defs>
<linearGradient id="paint0_linear_0_49" x1="12" y1="0" x2="12" y2="24" gradientUnits="userSpaceOnUse">
<stop stop-color="#FBCE9D"/>
<stop offset="1" stop-color="#F9B062"/>
</linearGradient>
<clipPath id="clip0_0_49">
<path d="M0 4C0 1.79086 1.79086 0 4 0H20C22.2091 0 24 1.79086 24 4V20C24 22.2091 22.2091 24 20 24H4C1.79086 24 0 22.2091 0 20V4Z" fill="white"/>
</clipPath>
</defs>
</svg>
